<svg xmlns="http://www.w3.org/2000/svg" xmlns:xlink="http://www.w3.org/1999/xlink" width="290" zoomAndPan="magnify" viewBox="0 0 217.5 131.249995" height="175" preserveAspectRatio="xMidYMid meet" version="1.0"><defs><g/><clipPath id="97a7ba52db"><path d="M 0.371094 0 L 216.632812 0 L 216.632812 130.503906 L 0.371094 130.503906 Z M 0.371094 0 " clip-rule="nonzero"/></clipPath><clipPath id="64a5a56bcc"><path d="M 183.710938 0 L 216.632812 0 L 216.632812 38.820312 L 183.710938 38.820312 Z M 183.710938 0 " clip-rule="nonzero"/></clipPath><clipPath id="bc571ba361"><path d="M 210.113281 -13.984375 C 195.53125 -13.984375 183.710938 -2.164062 183.710938 12.417969 C 183.710938 27 195.53125 38.820312 210.113281 38.820312 C 224.699219 38.820312 236.519531 27 236.519531 12.417969 C 236.519531 -2.164062 224.699219 -13.984375 210.113281 -13.984375 Z M 210.113281 -13.984375 " clip-rule="nonzero"/></clipPath><clipPath id="8805031437"><path d="M 188.515625 0 L 216.632812 0 L 216.632812 34.019531 L 188.515625 34.019531 Z M 188.515625 0 " clip-rule="nonzero"/></clipPath><clipPath id="6f2c0d6f56"><path d="M 210.113281 -9.183594 C 198.183594 -9.183594 188.515625 0.488281 188.515625 12.417969 C 188.515625 24.347656 198.183594 34.019531 210.113281 34.019531 C 222.042969 34.019531 231.714844 24.347656 231.714844 12.417969 C 231.714844 0.488281 222.042969 -9.183594 210.113281 -9.183594 Z M 210.113281 -9.183594 " clip-rule="nonzero"/></clipPath><clipPath id="19253acd5b"><path d="M 38.277344 25.339844 L 46.9375 25.339844 L 46.9375 33.996094 L 38.277344 33.996094 Z M 38.277344 25.339844 " clip-rule="nonzero"/></clipPath><clipPath id="eee55b6840"><path d="M 42.621094 25.339844 C 40.222656 25.339844 38.277344 27.285156 38.277344 29.683594 C 38.277344 32.082031 40.222656 34.023438 42.621094 34.023438 C 45.019531 34.023438 46.964844 32.082031 46.964844 29.683594 C 46.964844 27.285156 45.019531 25.339844 42.621094 25.339844 Z M 42.621094 25.339844 " clip-rule="nonzero"/></clipPath><clipPath id="7dabca9cbc"><path d="M 188 101 L 190 101 L 190 130.503906 L 188 130.503906 Z M 188 101 " clip-rule="nonzero"/></clipPath><clipPath id="1144ee8ad2"><path d="M 196 83 L 198 83 L 198 130.503906 L 196 130.503906 Z M 196 83 " clip-rule="nonzero"/></clipPath><clipPath id="bbd062d74c"><path d="M 204 64 L 206 64 L 206 130.503906 L 204 130.503906 Z M 204 64 " clip-rule="nonzero"/></clipPath><clipPath id="b684bbbf03"><path d="M 10.492188 105.9375 L 14.820312 105.9375 L 14.820312 110.265625 L 10.492188 110.265625 Z M 10.492188 105.9375 " clip-rule="nonzero"/></clipPath><clipPath id="fdd811d203"><path d="M 12.664062 105.9375 C 11.464844 105.9375 10.492188 106.910156 10.492188 108.109375 C 10.492188 109.308594 11.464844 110.28125 12.664062 110.28125 C 13.863281 110.28125 14.835938 109.308594 14.835938 108.109375 C 14.835938 106.910156 13.863281 105.9375 12.664062 105.9375 Z M 12.664062 105.9375 " clip-rule="nonzero"/></clipPath><clipPath id="74b6e3542a"><path d="M 87.417969 77 L 129.921875 77 L 129.921875 102 L 87.417969 102 Z M 87.417969 77 " clip-rule="nonzero"/></clipPath><clipPath id="5037b7e4c2"><path d="M 87.417969 77 L 129.921875 77 L 129.921875 101 L 87.417969 101 Z M 87.417969 77 " clip-rule="nonzero"/></clipPath><clipPath id="faf63d2900"><path d="M 87.417969 78 L 129.921875 78 L 129.921875 100 L 87.417969 100 Z M 87.417969 78 " clip-rule="nonzero"/></clipPath><clipPath id="d695f3a27a"><path d="M 87.417969 77 L 129.921875 77 L 129.921875 101 L 87.417969 101 Z M 87.417969 77 " clip-rule="nonzero"/></clipPath><clipPath id="7f8ce74fe3"><path d="M 87.417969 78 L 129.921875 78 L 129.921875 101 L 87.417969 101 Z M 87.417969 78 " clip-rule="nonzero"/></clipPath></defs><g clip-path="url(#97a7ba52db)"><path fill="#ffffff" d="M 0.371094 0 L 216.632812 0 L 216.632812 130.503906 L 0.371094 130.503906 Z M 0.371094 0 " fill-opacity="1" fill-rule="nonzero"/><path fill="#f3e0ff" d="M 0.371094 0 L 216.632812 0 L 216.632812 130.503906 L 0.371094 130.503906 Z M 0.371094 0 " fill-opacity="1" fill-rule="nonzero"/></g><g clip-path="url(#64a5a56bcc)"><g clip-path="url(#bc571ba361)"><path stroke-linecap="butt" transform="matrix(0.865922, 0, 0, 0.865922, 183.711366, -13.985812)" fill="none" stroke-linejoin="miter" d="M 30.494441 0.00165927 C 13.650049 0.00165927 -0.00049463 13.652203 -0.00049463 30.492084 C -0.00049463 47.331965 13.650049 60.982508 30.494441 60.982508 C 47.334322 60.982508 60.984865 47.331965 60.984865 30.492084 C 60.984865 13.652203 47.334322 0.00165927 30.494441 0.00165927 Z M 30.494441 0.00165927 " stroke="#6c52cf" stroke-width="1.722414" stroke-opacity="1" stroke-miterlimit="4"/></g></g><g clip-path="url(#8805031437)"><g clip-path="url(#6f2c0d6f56)"><path stroke-linecap="butt" transform="matrix(0.865923, 0, 0, 0.865923, 188.514185, -9.182984)" fill="none" stroke-linejoin="miter" d="M 24.943452 -0.000704107 C 11.166598 -0.000704107 0.00166327 11.168742 0.00166327 24.945595 C 0.00166327 38.722449 11.166598 49.891895 24.943452 49.891895 C 38.720305 49.891895 49.889751 38.722449 49.889751 24.945595 C 49.889751 11.168742 38.720305 -0.000704107 24.943452 -0.000704107 Z M 24.943452 -0.000704107 " stroke="#6c52cf" stroke-width="1.722414" stroke-opacity="1" stroke-miterlimit="4"/></g></g><g clip-path="url(#19253acd5b)"><g clip-path="url(#eee55b6840)"><path stroke-linecap="butt" transform="matrix(0.865922, 0, 0, 0.865922, 38.278517, 25.338808)" fill="none" stroke-linejoin="miter" d="M 5.014972 0.00119571 C 2.245165 0.00119571 -0.00135498 2.247716 -0.00135498 5.017522 C -0.00135498 7.787329 2.245165 10.029338 5.014972 10.029338 C 7.784778 10.029338 10.031298 7.787329 10.031298 5.017522 C 10.031298 2.247716 7.784778 0.00119571 5.014972 0.00119571 Z M 5.014972 0.00119571 " stroke="#6c52cf" stroke-width="1.722414" stroke-opacity="1" stroke-miterlimit="4"/></g></g><path stroke-linecap="butt" transform="matrix(0, 0.865923, -0.865923, 0, 15.266042, -10.599991)" fill="none" stroke-linejoin="miter" d="M -0.00181466 0.501212 L 87.598943 0.501212 " stroke="#6c52cf" stroke-width="1" stroke-opacity="1" stroke-miterlimit="4"/><path stroke-linecap="butt" transform="matrix(0, 0.865923, -0.865923, 0, 23.496446, -28.957547)" fill="none" stroke-linejoin="miter" d="M 0.0005956 0.501137 L 87.601353 0.501137 " stroke="#6c52cf" stroke-width="1" stroke-opacity="1" stroke-miterlimit="4"/><path stroke-linecap="butt" transform="matrix(0, 0.865923, -0.865923, 0, 31.726847, -47.315104)" fill="none" stroke-linejoin="miter" d="M -0.00150357 0.501059 L 87.599254 0.501059 " stroke="#6c52cf" stroke-width="1" stroke-opacity="1" stroke-miterlimit="4"/><g clip-path="url(#7dabca9cbc)"><path stroke-linecap="butt" transform="matrix(0, 0.865923, -0.865923, 0, 189.377406, 101.969939)" fill="none" stroke-linejoin="miter" d="M -0.0013729 0.498998 L 87.599385 0.498998 " stroke="#6c52cf" stroke-width="1" stroke-opacity="1" stroke-miterlimit="4"/></g><g clip-path="url(#1144ee8ad2)"><path stroke-linecap="butt" transform="matrix(0, 0.865923, -0.865923, 0, 197.607795, 83.612382)" fill="none" stroke-linejoin="miter" d="M 0.00103819 0.498906 L 87.601796 0.498906 " stroke="#6c52cf" stroke-width="1" stroke-opacity="1" stroke-miterlimit="4"/></g><g clip-path="url(#bbd062d74c)"><path stroke-linecap="butt" transform="matrix(0, 0.865923, -0.865923, 0, 205.838214, 65.254826)" fill="none" stroke-linejoin="miter" d="M -0.00106181 0.498849 L 87.599696 0.498849 " stroke="#6c52cf" stroke-width="1" stroke-opacity="1" stroke-miterlimit="4"/></g><g clip-path="url(#b684bbbf03)"><g clip-path="url(#fdd811d203)"><path stroke-linecap="butt" transform="matrix(0.865922, 0, 0, 0.865922, 10.492634, 105.936941)" fill="none" stroke-linejoin="miter" d="M 2.507647 0.000645428 C 1.122744 0.000645428 -0.000516174 1.123906 -0.000516174 2.508809 C -0.000516174 3.893712 1.122744 5.016972 2.507647 5.016972 C 3.89255 5.016972 5.015811 3.893712 5.015811 2.508809 C 5.015811 1.123906 3.89255 0.000645428 2.507647 0.000645428 Z M 2.507647 0.000645428 " stroke="#6c52cf" stroke-width="1.722414" stroke-opacity="1" stroke-miterlimit="4"/></g></g><path stroke-linecap="butt" transform="matrix(0, 0.865923, -0.865923, 0, 71.082863, 101.970115)" fill="none" stroke-linejoin="miter" d="M -0.00157683 0.50169 L 6.038766 0.50169 " stroke="#6c52cf" stroke-width="1" stroke-opacity="1" stroke-miterlimit="4"/><path stroke-linecap="butt" transform="matrix(0.865923, 0, 0, 0.865923, 68.038603, 104.157263)" fill="none" stroke-linejoin="miter" d="M 0.000531139 0.499561 L 6.036363 0.499561 " stroke="#6c52cf" stroke-width="1" stroke-opacity="1" stroke-miterlimit="4"/><path stroke-linecap="butt" transform="matrix(0, 0.865923, -0.865923, 0, 150.430714, 27.070664)" fill="none" stroke-linejoin="miter" d="M -0.000406359 0.501916 L 6.039936 0.501916 " stroke="#6c52cf" stroke-width="1" stroke-opacity="1" stroke-miterlimit="4"/><path stroke-linecap="butt" transform="matrix(0.865923, 0, 0, 0.865923, 147.38644, 29.257827)" fill="none" stroke-linejoin="miter" d="M 0.000322126 0.500714 L 6.036154 0.500714 " stroke="#6c52cf" stroke-width="1" stroke-opacity="1" stroke-miterlimit="4"/><g fill="#000000" fill-opacity="1"><g transform="translate(46.38116, 68.330242)"><g><path d="M 8.9375 -7.59375 C 9.632812 -7.351562 10.238281 -6.96875 10.75 -6.4375 C 11.257812 -5.914062 11.515625 -5.253906 11.515625 -4.453125 C 11.515625 -3.734375 11.285156 -3.113281 10.828125 -2.59375 C 10.378906 -2.082031 9.816406 -1.6875 9.140625 -1.40625 C 8.472656 -1.132812 7.8125 -1 7.15625 -1 L 2.671875 -1 C 2.210938 -1 1.773438 -1.023438 1.359375 -1.078125 C 0.953125 -1.128906 0.625 -1.234375 0.375 -1.390625 C 0.125 -1.546875 0 -1.765625 0 -2.046875 C 0 -2.265625 0.0546875 -2.488281 0.171875 -2.71875 C 0.296875 -2.945312 0.421875 -3.132812 0.546875 -3.28125 C 0.710938 -3.476562 0.832031 -3.8125 0.90625 -4.28125 C 0.988281 -4.757812 1.035156 -5.300781 1.046875 -5.90625 C 1.066406 -6.519531 1.050781 -7.125 1 -7.71875 C 0.957031 -8.320312 0.882812 -8.851562 0.78125 -9.3125 C 0.6875 -9.78125 0.578125 -10.101562 0.453125 -10.28125 C 0.347656 -10.425781 0.242188 -10.601562 0.140625 -10.8125 C 0.046875 -11.019531 0 -11.21875 0 -11.40625 C 0 -11.695312 0.125 -11.914062 0.375 -12.0625 C 0.625 -12.21875 0.953125 -12.320312 1.359375 -12.375 C 1.773438 -12.425781 2.210938 -12.453125 2.671875 -12.453125 L 6.40625 -12.453125 C 7.03125 -12.453125 7.640625 -12.351562 8.234375 -12.15625 C 8.835938 -11.957031 9.335938 -11.65625 9.734375 -11.25 C 10.128906 -10.851562 10.328125 -10.34375 10.328125 -9.71875 C 10.328125 -9.195312 10.191406 -8.765625 9.921875 -8.421875 C 9.660156 -8.085938 9.332031 -7.8125 8.9375 -7.59375 Z M 7.296875 -2.34375 C 7.523438 -2.539062 7.6875 -2.847656 7.78125 -3.265625 C 7.882812 -3.691406 7.898438 -4.144531 7.828125 -4.625 C 7.765625 -5.113281 7.597656 -5.554688 7.328125 -5.953125 C 7.066406 -6.359375 6.691406 -6.644531 6.203125 -6.8125 C 5.710938 -6.988281 5.097656 -6.96875 4.359375 -6.75 C 4.359375 -5.957031 4.429688 -5.195312 4.578125 -4.46875 C 4.722656 -3.738281 4.9375 -3.144531 5.21875 -2.6875 C 5.5 -2.226562 5.84375 -2 6.25 -2 C 6.457031 -2 6.640625 -2.019531 6.796875 -2.0625 C 6.953125 -2.101562 7.117188 -2.195312 7.296875 -2.34375 Z M 6.25 -11.5625 C 5.882812 -11.5625 5.570312 -11.390625 5.3125 -11.046875 C 5.050781 -10.710938 4.84375 -10.257812 4.6875 -9.6875 C 4.539062 -9.125 4.445312 -8.507812 4.40625 -7.84375 C 4.894531 -7.84375 5.335938 -7.988281 5.734375 -8.28125 C 6.140625 -8.570312 6.46875 -8.921875 6.71875 -9.328125 C 6.96875 -9.742188 7.101562 -10.144531 7.125 -10.53125 C 7.144531 -10.914062 7.019531 -11.207031 6.75 -11.40625 C 6.625 -11.507812 6.457031 -11.5625 6.25 -11.5625 Z M 6.25 -11.5625 "/></g></g></g><g fill="#000000" fill-opacity="1"><g transform="translate(58.105448, 68.330242)"><g><path d="M 4.46875 -8.921875 C 5.382812 -8.921875 6.109375 -8.796875 6.640625 -8.546875 C 7.179688 -8.304688 7.585938 -7.976562 7.859375 -7.5625 C 8.128906 -7.15625 8.316406 -6.710938 8.421875 -6.234375 C 8.523438 -5.753906 8.597656 -5.269531 8.640625 -4.78125 C 8.691406 -4.300781 8.765625 -3.851562 8.859375 -3.4375 C 8.960938 -3.03125 9.144531 -2.707031 9.40625 -2.46875 C 9.519531 -2.34375 9.648438 -2.238281 9.796875 -2.15625 C 9.941406 -2.082031 10 -1.960938 9.96875 -1.796875 C 9.9375 -1.585938 9.753906 -1.398438 9.421875 -1.234375 C 9.085938 -1.078125 8.703125 -1 8.265625 -1 C 7.867188 -1 7.5 -1.070312 7.15625 -1.21875 C 6.820312 -1.375 6.519531 -1.523438 6.25 -1.671875 C 5.988281 -1.816406 5.742188 -1.890625 5.515625 -1.890625 C 5.304688 -1.890625 5.085938 -1.816406 4.859375 -1.671875 C 4.628906 -1.523438 4.347656 -1.375 4.015625 -1.21875 C 3.691406 -1.070312 3.28125 -1 2.78125 -1 C 2.144531 -1 1.59375 -1.125 1.125 -1.375 C 0.664062 -1.625 0.335938 -1.957031 0.140625 -2.375 C -0.046875 -2.800781 -0.046875 -3.265625 0.140625 -3.765625 C 0.304688 -4.222656 0.601562 -4.550781 1.03125 -4.75 C 1.46875 -4.945312 1.957031 -5.09375 2.5 -5.1875 C 3.050781 -5.289062 3.570312 -5.414062 4.0625 -5.5625 C 4.582031 -5.726562 4.914062 -5.976562 5.0625 -6.3125 C 5.21875 -6.65625 5.25 -6.992188 5.15625 -7.328125 C 5.0625 -7.660156 4.898438 -7.878906 4.671875 -7.984375 C 4.441406 -8.085938 4.273438 -8.046875 4.171875 -7.859375 C 4.078125 -7.679688 4.007812 -7.457031 3.96875 -7.1875 C 3.925781 -6.914062 3.863281 -6.6875 3.78125 -6.5 C 3.675781 -6.207031 3.46875 -6.003906 3.15625 -5.890625 C 2.84375 -5.773438 2.507812 -5.738281 2.15625 -5.78125 C 1.800781 -5.832031 1.492188 -5.945312 1.234375 -6.125 C 0.972656 -6.3125 0.832031 -6.554688 0.8125 -6.859375 C 0.800781 -7.171875 0.988281 -7.523438 1.375 -7.921875 C 1.65625 -8.203125 2.054688 -8.4375 2.578125 -8.625 C 3.097656 -8.820312 3.726562 -8.921875 4.46875 -8.921875 Z M 3.421875 -3.359375 C 3.460938 -3.035156 3.632812 -2.820312 3.9375 -2.71875 C 4.25 -2.613281 4.539062 -2.582031 4.8125 -2.625 C 4.9375 -2.65625 5.03125 -2.71875 5.09375 -2.8125 C 5.164062 -2.914062 5.207031 -3 5.21875 -3.0625 C 5.300781 -3.46875 5.335938 -3.828125 5.328125 -4.140625 C 5.316406 -4.460938 5.289062 -4.722656 5.25 -4.921875 C 5.226562 -5.035156 5.164062 -5.09375 5.0625 -5.09375 C 4.96875 -5.101562 4.847656 -5.03125 4.703125 -4.875 C 4.535156 -4.707031 4.34375 -4.554688 4.125 -4.421875 C 3.914062 -4.285156 3.738281 -4.132812 3.59375 -3.96875 C 3.445312 -3.800781 3.390625 -3.597656 3.421875 -3.359375 Z M 3.421875 -3.359375 "/></g></g></g><g fill="#000000" fill-opacity="1"><g transform="translate(67.913703, 68.330242)"><g><path d="M 6.6875 -8.921875 C 7.28125 -8.921875 7.773438 -8.78125 8.171875 -8.5 C 8.566406 -8.226562 8.882812 -7.875 9.125 -7.4375 C 9.363281 -7 9.554688 -6.523438 9.703125 -6.015625 C 9.847656 -5.503906 9.96875 -5.003906 10.0625 -4.515625 C 10.164062 -4.023438 10.265625 -3.59375 10.359375 -3.21875 C 10.460938 -2.851562 10.597656 -2.59375 10.765625 -2.4375 C 10.890625 -2.332031 11.019531 -2.238281 11.15625 -2.15625 C 11.289062 -2.082031 11.34375 -1.960938 11.3125 -1.796875 C 11.28125 -1.566406 11.148438 -1.394531 10.921875 -1.28125 C 10.691406 -1.175781 10.414062 -1.101562 10.09375 -1.0625 C 9.78125 -1.019531 9.472656 -1 9.171875 -1 C 8.878906 -1 8.53125 -1.054688 8.125 -1.171875 C 7.726562 -1.285156 7.378906 -1.5 7.078125 -1.8125 C 6.785156 -2.132812 6.640625 -2.609375 6.640625 -3.234375 L 6.640625 -6.390625 C 6.640625 -6.953125 6.554688 -7.320312 6.390625 -7.5 C 6.222656 -7.6875 6.019531 -7.71875 5.78125 -7.59375 C 5.539062 -7.476562 5.3125 -7.25 5.09375 -6.90625 C 4.875 -6.5625 4.695312 -6.140625 4.5625 -5.640625 C 4.4375 -5.148438 4.40625 -4.625 4.46875 -4.0625 C 4.5 -3.644531 4.554688 -3.289062 4.640625 -3 C 4.722656 -2.707031 4.828125 -2.5 4.953125 -2.375 C 5.054688 -2.269531 5.160156 -2.179688 5.265625 -2.109375 C 5.367188 -2.035156 5.410156 -1.929688 5.390625 -1.796875 C 5.359375 -1.566406 5.175781 -1.394531 4.84375 -1.28125 C 4.519531 -1.175781 4.148438 -1.101562 3.734375 -1.0625 C 3.316406 -1.019531 2.953125 -1 2.640625 -1 C 2.359375 -1 2.007812 -1.019531 1.59375 -1.0625 C 1.1875 -1.101562 0.828125 -1.175781 0.515625 -1.28125 C 0.203125 -1.394531 0.03125 -1.566406 0 -1.796875 C -0.0078125 -1.953125 0.0234375 -2.066406 0.109375 -2.140625 C 0.203125 -2.222656 0.300781 -2.316406 0.40625 -2.421875 C 0.570312 -2.566406 0.6875 -2.84375 0.75 -3.25 C 0.820312 -3.65625 0.863281 -4.109375 0.875 -4.609375 C 0.894531 -5.109375 0.90625 -5.570312 0.90625 -6 C 0.90625 -6.75 0.894531 -7.40625 0.875 -7.96875 C 0.863281 -8.53125 0.738281 -8.960938 0.5 -9.265625 C 0.394531 -9.429688 0.28125 -9.566406 0.15625 -9.671875 C 0.0390625 -9.773438 -0.0078125 -9.921875 0 -10.109375 C 0.03125 -10.335938 0.160156 -10.539062 0.390625 -10.71875 C 0.628906 -10.90625 0.90625 -11.070312 1.21875 -11.21875 C 1.53125 -11.375 1.816406 -11.519531 2.078125 -11.65625 C 2.273438 -11.757812 2.535156 -11.882812 2.859375 -12.03125 C 3.191406 -12.1875 3.507812 -12.304688 3.8125 -12.390625 C 4.125 -12.484375 4.375 -12.484375 4.5625 -12.390625 C 4.75 -12.296875 4.796875 -12.066406 4.703125 -11.703125 C 4.679688 -11.597656 4.648438 -11.304688 4.609375 -10.828125 C 4.566406 -10.347656 4.519531 -9.765625 4.46875 -9.078125 C 4.425781 -8.390625 4.394531 -7.679688 4.375 -6.953125 C 4.601562 -7.628906 4.953125 -8.125 5.421875 -8.4375 C 5.898438 -8.757812 6.320312 -8.921875 6.6875 -8.921875 Z M 6.6875 -8.921875 "/></g></g></g><g fill="#000000" fill-opacity="1"><g transform="translate(79.387072, 68.330242)"><g><path d="M 4.46875 -8.921875 C 5.382812 -8.921875 6.109375 -8.796875 6.640625 -8.546875 C 7.179688 -8.304688 7.585938 -7.976562 7.859375 -7.5625 C 8.128906 -7.15625 8.316406 -6.710938 8.421875 -6.234375 C 8.523438 -5.753906 8.597656 -5.269531 8.640625 -4.78125 C 8.691406 -4.300781 8.765625 -3.851562 8.859375 -3.4375 C 8.960938 -3.03125 9.144531 -2.707031 9.40625 -2.46875 C 9.519531 -2.34375 9.648438 -2.238281 9.796875 -2.15625 C 9.941406 -2.082031 10 -1.960938 9.96875 -1.796875 C 9.9375 -1.585938 9.753906 -1.398438 9.421875 -1.234375 C 9.085938 -1.078125 8.703125 -1 8.265625 -1 C 7.867188 -1 7.5 -1.070312 7.15625 -1.21875 C 6.820312 -1.375 6.519531 -1.523438 6.25 -1.671875 C 5.988281 -1.816406 5.742188 -1.890625 5.515625 -1.890625 C 5.304688 -1.890625 5.085938 -1.816406 4.859375 -1.671875 C 4.628906 -1.523438 4.347656 -1.375 4.015625 -1.21875 C 3.691406 -1.070312 3.28125 -1 2.78125 -1 C 2.144531 -1 1.59375 -1.125 1.125 -1.375 C 0.664062 -1.625 0.335938 -1.957031 0.140625 -2.375 C -0.046875 -2.800781 -0.046875 -3.265625 0.140625 -3.765625 C 0.304688 -4.222656 0.601562 -4.550781 1.03125 -4.75 C 1.46875 -4.945312 1.957031 -5.09375 2.5 -5.1875 C 3.050781 -5.289062 3.570312 -5.414062 4.0625 -5.5625 C 4.582031 -5.726562 4.914062 -5.976562 5.0625 -6.3125 C 5.21875 -6.65625 5.25 -6.992188 5.15625 -7.328125 C 5.0625 -7.660156 4.898438 -7.878906 4.671875 -7.984375 C 4.441406 -8.085938 4.273438 -8.046875 4.171875 -7.859375 C 4.078125 -7.679688 4.007812 -7.457031 3.96875 -7.1875 C 3.925781 -6.914062 3.863281 -6.6875 3.78125 -6.5 C 3.675781 -6.207031 3.46875 -6.003906 3.15625 -5.890625 C 2.84375 -5.773438 2.507812 -5.738281 2.15625 -5.78125 C 1.800781 -5.832031 1.492188 -5.945312 1.234375 -6.125 C 0.972656 -6.3125 0.832031 -6.554688 0.8125 -6.859375 C 0.800781 -7.171875 0.988281 -7.523438 1.375 -7.921875 C 1.65625 -8.203125 2.054688 -8.4375 2.578125 -8.625 C 3.097656 -8.820312 3.726562 -8.921875 4.46875 -8.921875 Z M 3.421875 -3.359375 C 3.460938 -3.035156 3.632812 -2.820312 3.9375 -2.71875 C 4.25 -2.613281 4.539062 -2.582031 4.8125 -2.625 C 4.9375 -2.65625 5.03125 -2.71875 5.09375 -2.8125 C 5.164062 -2.914062 5.207031 -3 5.21875 -3.0625 C 5.300781 -3.46875 5.335938 -3.828125 5.328125 -4.140625 C 5.316406 -4.460938 5.289062 -4.722656 5.25 -4.921875 C 5.226562 -5.035156 5.164062 -5.09375 5.0625 -5.09375 C 4.96875 -5.101562 4.847656 -5.03125 4.703125 -4.875 C 4.535156 -4.707031 4.34375 -4.554688 4.125 -4.421875 C 3.914062 -4.285156 3.738281 -4.132812 3.59375 -3.96875 C 3.445312 -3.800781 3.390625 -3.597656 3.421875 -3.359375 Z M 3.421875 -3.359375 "/></g></g></g><g fill="#000000" fill-opacity="1"><g transform="translate(89.195327, 68.330242)"><g><path d="M 8.078125 -7.421875 C 8.242188 -7.078125 8.234375 -6.800781 8.046875 -6.59375 C 7.867188 -6.382812 7.597656 -6.234375 7.234375 -6.140625 C 6.878906 -6.054688 6.507812 -6.046875 6.125 -6.109375 C 5.738281 -6.171875 5.421875 -6.304688 5.171875 -6.515625 C 4.921875 -6.722656 4.816406 -7.015625 4.859375 -7.390625 C 4.921875 -7.785156 4.851562 -8.046875 4.65625 -8.171875 C 4.46875 -8.304688 4.265625 -8.332031 4.046875 -8.25 C 3.828125 -8.175781 3.6875 -8.019531 3.625 -7.78125 C 3.53125 -7.414062 3.613281 -7.09375 3.875 -6.8125 C 4.132812 -6.53125 4.476562 -6.265625 4.90625 -6.015625 C 5.34375 -5.773438 5.789062 -5.53125 6.25 -5.28125 C 6.707031 -5.039062 7.109375 -4.773438 7.453125 -4.484375 C 7.804688 -4.203125 8.015625 -3.863281 8.078125 -3.46875 C 8.148438 -3.070312 8.007812 -2.679688 7.65625 -2.296875 C 7.3125 -1.921875 6.832031 -1.609375 6.21875 -1.359375 C 5.601562 -1.117188 4.921875 -1 4.171875 -1 L 4.125 -1 C 3.59375 -1 3.050781 -1.050781 2.5 -1.15625 C 1.945312 -1.269531 1.457031 -1.4375 1.03125 -1.65625 C 0.601562 -1.875 0.296875 -2.160156 0.109375 -2.515625 C -0.0546875 -2.847656 -0.0507812 -3.117188 0.125 -3.328125 C 0.3125 -3.546875 0.582031 -3.695312 0.9375 -3.78125 C 1.300781 -3.863281 1.675781 -3.875 2.0625 -3.8125 C 2.445312 -3.75 2.765625 -3.613281 3.015625 -3.40625 C 3.273438 -3.207031 3.378906 -2.914062 3.328125 -2.53125 C 3.285156 -2.132812 3.347656 -1.867188 3.515625 -1.734375 C 3.691406 -1.609375 3.890625 -1.585938 4.109375 -1.671875 C 4.335938 -1.753906 4.488281 -1.910156 4.5625 -2.140625 C 4.664062 -2.503906 4.59375 -2.816406 4.34375 -3.078125 C 4.09375 -3.335938 3.742188 -3.570312 3.296875 -3.78125 C 2.859375 -4 2.40625 -4.222656 1.9375 -4.453125 C 1.46875 -4.691406 1.054688 -4.960938 0.703125 -5.265625 C 0.359375 -5.566406 0.160156 -5.929688 0.109375 -6.359375 C 0.046875 -6.890625 0.1875 -7.34375 0.53125 -7.71875 C 0.875 -8.101562 1.351562 -8.398438 1.96875 -8.609375 C 2.582031 -8.816406 3.265625 -8.921875 4.015625 -8.921875 L 4.0625 -8.921875 C 4.59375 -8.921875 5.132812 -8.863281 5.6875 -8.75 C 6.25 -8.644531 6.742188 -8.484375 7.171875 -8.265625 C 7.609375 -8.046875 7.910156 -7.765625 8.078125 -7.421875 Z M 8.078125 -7.421875 "/></g></g></g><g fill="#000000" fill-opacity="1"><g transform="translate(97.657795, 68.330242)"><g><path d="M 4.46875 -8.921875 C 5.382812 -8.921875 6.109375 -8.796875 6.640625 -8.546875 C 7.179688 -8.304688 7.585938 -7.976562 7.859375 -7.5625 C 8.128906 -7.15625 8.316406 -6.710938 8.421875 -6.234375 C 8.523438 -5.753906 8.597656 -5.269531 8.640625 -4.78125 C 8.691406 -4.300781 8.765625 -3.851562 8.859375 -3.4375 C 8.960938 -3.03125 9.144531 -2.707031 9.40625 -2.46875 C 9.519531 -2.34375 9.648438 -2.238281 9.796875 -2.15625 C 9.941406 -2.082031 10 -1.960938 9.96875 -1.796875 C 9.9375 -1.585938 9.753906 -1.398438 9.421875 -1.234375 C 9.085938 -1.078125 8.703125 -1 8.265625 -1 C 7.867188 -1 7.5 -1.070312 7.15625 -1.21875 C 6.820312 -1.375 6.519531 -1.523438 6.25 -1.671875 C 5.988281 -1.816406 5.742188 -1.890625 5.515625 -1.890625 C 5.304688 -1.890625 5.085938 -1.816406 4.859375 -1.671875 C 4.628906 -1.523438 4.347656 -1.375 4.015625 -1.21875 C 3.691406 -1.070312 3.28125 -1 2.78125 -1 C 2.144531 -1 1.59375 -1.125 1.125 -1.375 C 0.664062 -1.625 0.335938 -1.957031 0.140625 -2.375 C -0.046875 -2.800781 -0.046875 -3.265625 0.140625 -3.765625 C 0.304688 -4.222656 0.601562 -4.550781 1.03125 -4.75 C 1.46875 -4.945312 1.957031 -5.09375 2.5 -5.1875 C 3.050781 -5.289062 3.570312 -5.414062 4.0625 -5.5625 C 4.582031 -5.726562 4.914062 -5.976562 5.0625 -6.3125 C 5.21875 -6.65625 5.25 -6.992188 5.15625 -7.328125 C 5.0625 -7.660156 4.898438 -7.878906 4.671875 -7.984375 C 4.441406 -8.085938 4.273438 -8.046875 4.171875 -7.859375 C 4.078125 -7.679688 4.007812 -7.457031 3.96875 -7.1875 C 3.925781 -6.914062 3.863281 -6.6875 3.78125 -6.5 C 3.675781 -6.207031 3.46875 -6.003906 3.15625 -5.890625 C 2.84375 -5.773438 2.507812 -5.738281 2.15625 -5.78125 C 1.800781 -5.832031 1.492188 -5.945312 1.234375 -6.125 C 0.972656 -6.3125 0.832031 -6.554688 0.8125 -6.859375 C 0.800781 -7.171875 0.988281 -7.523438 1.375 -7.921875 C 1.65625 -8.203125 2.054688 -8.4375 2.578125 -8.625 C 3.097656 -8.820312 3.726562 -8.921875 4.46875 -8.921875 Z M 3.421875 -3.359375 C 3.460938 -3.035156 3.632812 -2.820312 3.9375 -2.71875 C 4.25 -2.613281 4.539062 -2.582031 4.8125 -2.625 C 4.9375 -2.65625 5.03125 -2.71875 5.09375 -2.8125 C 5.164062 -2.914062 5.207031 -3 5.21875 -3.0625 C 5.300781 -3.46875 5.335938 -3.828125 5.328125 -4.140625 C 5.316406 -4.460938 5.289062 -4.722656 5.25 -4.921875 C 5.226562 -5.035156 5.164062 -5.09375 5.0625 -5.09375 C 4.96875 -5.101562 4.847656 -5.03125 4.703125 -4.875 C 4.535156 -4.707031 4.34375 -4.554688 4.125 -4.421875 C 3.914062 -4.285156 3.738281 -4.132812 3.59375 -3.96875 C 3.445312 -3.800781 3.390625 -3.597656 3.421875 -3.359375 Z M 3.421875 -3.359375 "/></g></g></g><g fill="#000000" fill-opacity="1"><g transform="translate(107.46605, 68.330242)"><g/></g></g><g fill="#000000" fill-opacity="1"><g transform="translate(111.092821, 68.330242)"><g><path d="M 5.546875 -11.40625 C 5.546875 -11.21875 5.492188 -11.019531 5.390625 -10.8125 C 5.296875 -10.601562 5.195312 -10.425781 5.09375 -10.28125 C 4.96875 -10.101562 4.851562 -9.78125 4.75 -9.3125 C 4.65625 -8.851562 4.582031 -8.320312 4.53125 -7.71875 C 4.488281 -7.125 4.472656 -6.519531 4.484375 -5.90625 C 4.492188 -5.300781 4.539062 -4.757812 4.625 -4.28125 C 4.707031 -3.8125 4.820312 -3.476562 4.96875 -3.28125 C 5.101562 -3.132812 5.234375 -2.945312 5.359375 -2.71875 C 5.484375 -2.488281 5.546875 -2.265625 5.546875 -2.046875 C 5.546875 -1.765625 5.421875 -1.546875 5.171875 -1.390625 C 4.921875 -1.234375 4.59375 -1.128906 4.1875 -1.078125 C 3.78125 -1.023438 3.34375 -1 2.875 -1 L 2.671875 -1 C 2.210938 -1 1.773438 -1.023438 1.359375 -1.078125 C 0.953125 -1.128906 0.625 -1.234375 0.375 -1.390625 C 0.125 -1.546875 0 -1.765625 0 -2.046875 C 0 -2.265625 0.0546875 -2.488281 0.171875 -2.71875 C 0.296875 -2.945312 0.421875 -3.132812 0.546875 -3.28125 C 0.710938 -3.476562 0.832031 -3.8125 0.90625 -4.28125 C 0.988281 -4.757812 1.035156 -5.300781 1.046875 -5.90625 C 1.066406 -6.519531 1.050781 -7.125 1 -7.71875 C 0.957031 -8.320312 0.882812 -8.851562 0.78125 -9.3125 C 0.6875 -9.78125 0.578125 -10.101562 0.453125 -10.28125 C 0.347656 -10.425781 0.242188 -10.601562 0.140625 -10.8125 C 0.046875 -11.019531 0 -11.21875 0 -11.40625 C 0 -11.695312 0.125 -11.914062 0.375 -12.0625 C 0.625 -12.21875 0.953125 -12.320312 1.359375 -12.375 C 1.773438 -12.425781 2.210938 -12.453125 2.671875 -12.453125 L 2.875 -12.453125 C 3.34375 -12.453125 3.78125 -12.425781 4.1875 -12.375 C 4.59375 -12.320312 4.921875 -12.21875 5.171875 -12.0625 C 5.421875 -11.914062 5.546875 -11.695312 5.546875 -11.40625 Z M 5.546875 -11.40625 "/></g></g></g><g fill="#000000" fill-opacity="1"><g transform="translate(116.840918, 68.330242)"><g><path d="M 6.640625 -8.921875 C 7.328125 -8.921875 7.875 -8.734375 8.28125 -8.359375 C 8.6875 -7.984375 9.007812 -7.507812 9.25 -6.9375 C 9.488281 -6.375 9.675781 -5.78125 9.8125 -5.15625 C 9.957031 -4.53125 10.097656 -3.96875 10.234375 -3.46875 C 10.378906 -2.96875 10.554688 -2.601562 10.765625 -2.375 C 10.867188 -2.269531 10.972656 -2.179688 11.078125 -2.109375 C 11.191406 -2.035156 11.234375 -1.929688 11.203125 -1.796875 C 11.171875 -1.566406 11.023438 -1.394531 10.765625 -1.28125 C 10.503906 -1.175781 10.203125 -1.101562 9.859375 -1.0625 C 9.523438 -1.019531 9.203125 -1 8.890625 -1 C 8.609375 -1 8.269531 -1.054688 7.875 -1.171875 C 7.488281 -1.285156 7.148438 -1.5 6.859375 -1.8125 C 6.578125 -2.132812 6.4375 -2.609375 6.4375 -3.234375 L 6.4375 -6.390625 C 6.4375 -6.953125 6.363281 -7.316406 6.21875 -7.484375 C 6.082031 -7.660156 5.910156 -7.695312 5.703125 -7.59375 C 5.503906 -7.488281 5.300781 -7.285156 5.09375 -6.984375 C 4.894531 -6.679688 4.722656 -6.332031 4.578125 -5.9375 C 4.441406 -5.539062 4.375 -5.148438 4.375 -4.765625 C 4.375 -4.265625 4.414062 -3.796875 4.5 -3.359375 C 4.582031 -2.929688 4.734375 -2.601562 4.953125 -2.375 C 5.054688 -2.269531 5.160156 -2.179688 5.265625 -2.109375 C 5.367188 -2.035156 5.410156 -1.929688 5.390625 -1.796875 C 5.359375 -1.566406 5.175781 -1.394531 4.84375 -1.28125 C 4.519531 -1.175781 4.148438 -1.101562 3.734375 -1.0625 C 3.316406 -1.019531 2.953125 -1 2.640625 -1 C 2.359375 -1 2.007812 -1.019531 1.59375 -1.0625 C 1.1875 -1.101562 0.828125 -1.175781 0.515625 -1.28125 C 0.203125 -1.394531 0.03125 -1.566406 0 -1.796875 C -0.0078125 -1.953125 0.0234375 -2.066406 0.109375 -2.140625 C 0.203125 -2.222656 0.300781 -2.316406 0.40625 -2.421875 C 0.53125 -2.523438 0.625 -2.722656 0.6875 -3.015625 C 0.757812 -3.316406 0.800781 -3.648438 0.8125 -4.015625 C 0.832031 -4.378906 0.816406 -4.71875 0.765625 -5.03125 C 0.710938 -5.351562 0.625 -5.59375 0.5 -5.75 C 0.394531 -5.90625 0.28125 -6.035156 0.15625 -6.140625 C 0.0390625 -6.253906 -0.0078125 -6.394531 0 -6.5625 C 0.03125 -6.789062 0.160156 -7 0.390625 -7.1875 C 0.628906 -7.382812 0.90625 -7.554688 1.21875 -7.703125 C 1.53125 -7.859375 1.816406 -8.003906 2.078125 -8.140625 C 2.273438 -8.234375 2.535156 -8.351562 2.859375 -8.5 C 3.191406 -8.65625 3.507812 -8.773438 3.8125 -8.859375 C 4.125 -8.941406 4.375 -8.941406 4.5625 -8.859375 C 4.75 -8.773438 4.796875 -8.550781 4.703125 -8.1875 L 4.578125 -7.5 C 4.859375 -7.988281 5.195312 -8.347656 5.59375 -8.578125 C 5.988281 -8.804688 6.335938 -8.921875 6.640625 -8.921875 Z M 6.640625 -8.921875 "/></g></g></g><g fill="#000000" fill-opacity="1"><g transform="translate(128.245865, 68.330242)"><g><path d="M 8.28125 -2.5625 C 8.882812 -2.5625 9.398438 -2.410156 9.828125 -2.109375 C 10.253906 -1.816406 10.554688 -1.429688 10.734375 -0.953125 C 10.921875 -0.484375 10.945312 0.0078125 10.8125 0.53125 C 10.6875 1.0625 10.359375 1.5625 9.828125 2.03125 C 9.296875 2.5 8.539062 2.878906 7.5625 3.171875 C 6.582031 3.472656 5.320312 3.625 3.78125 3.625 C 3.238281 3.625 2.644531 3.59375 2 3.53125 C 1.363281 3.46875 0.757812 3.359375 0.1875 3.203125 C -0.375 3.046875 -0.832031 2.820312 -1.1875 2.53125 C -1.644531 2.15625 -1.890625 1.78125 -1.921875 1.40625 C -1.953125 1.039062 -1.835938 0.71875 -1.578125 0.4375 C -1.328125 0.15625 -1.007812 -0.0507812 -0.625 -0.1875 C -0.25 -0.332031 0.125 -0.367188 0.5 -0.296875 C 0.882812 -0.234375 1.179688 -0.0351562 1.390625 0.296875 C 1.953125 1.179688 2.5625 1.78125 3.21875 2.09375 C 3.882812 2.40625 4.460938 2.5625 4.953125 2.5625 C 5.441406 2.5625 5.835938 2.457031 6.140625 2.25 C 6.453125 2.039062 6.675781 1.785156 6.8125 1.484375 C 6.957031 1.191406 7.015625 0.921875 6.984375 0.671875 C 6.953125 0.421875 6.828125 0.25 6.609375 0.15625 C 6.359375 0.0390625 6.101562 0.0234375 5.84375 0.109375 C 5.59375 0.203125 5.28125 0.304688 4.90625 0.421875 C 4.539062 0.535156 4.046875 0.570312 3.421875 0.53125 C 2.628906 0.476562 2.039062 0.300781 1.65625 0 C 1.269531 -0.300781 1.050781 -0.644531 1 -1.03125 C 0.957031 -1.425781 1.0625 -1.796875 1.3125 -2.140625 C 1.5625 -2.492188 1.921875 -2.742188 2.390625 -2.890625 C 1.679688 -3.203125 1.101562 -3.597656 0.65625 -4.078125 C 0.21875 -4.554688 0 -5.082031 0 -5.65625 C 0 -6.257812 0.226562 -6.804688 0.6875 -7.296875 C 1.144531 -7.785156 1.753906 -8.175781 2.515625 -8.46875 C 3.285156 -8.769531 4.132812 -8.921875 5.0625 -8.921875 C 5.28125 -8.921875 5.488281 -8.910156 5.6875 -8.890625 C 5.894531 -8.878906 6.097656 -8.859375 6.296875 -8.828125 C 6.472656 -9.128906 6.75 -9.421875 7.125 -9.703125 C 7.5 -9.984375 7.910156 -10.210938 8.359375 -10.390625 C 8.804688 -10.566406 9.226562 -10.640625 9.625 -10.609375 C 10.1875 -10.566406 10.554688 -10.410156 10.734375 -10.140625 C 10.921875 -9.867188 10.972656 -9.578125 10.890625 -9.265625 C 10.804688 -8.960938 10.640625 -8.710938 10.390625 -8.515625 C 10.148438 -8.316406 9.878906 -8.253906 9.578125 -8.328125 C 9.304688 -8.390625 9.007812 -8.429688 8.6875 -8.453125 C 8.375 -8.472656 8.070312 -8.460938 7.78125 -8.421875 C 8.488281 -8.128906 9.054688 -7.738281 9.484375 -7.25 C 9.910156 -6.769531 10.125 -6.238281 10.125 -5.65625 C 10.125 -5.0625 9.894531 -4.519531 9.4375 -4.03125 C 8.988281 -3.550781 8.378906 -3.160156 7.609375 -2.859375 C 6.835938 -2.566406 5.988281 -2.421875 5.0625 -2.421875 C 4.957031 -2.421875 4.84375 -2.421875 4.71875 -2.421875 C 4.601562 -2.421875 4.484375 -2.425781 4.359375 -2.4375 C 3.960938 -2.289062 3.628906 -2.046875 3.359375 -1.703125 C 3.097656 -1.359375 2.957031 -1.035156 2.9375 -0.734375 C 2.925781 -0.429688 3.09375 -0.25 3.4375 -0.1875 C 3.832031 -0.101562 4.207031 -0.175781 4.5625 -0.40625 C 4.925781 -0.632812 5.289062 -0.914062 5.65625 -1.25 C 6.019531 -1.582031 6.410156 -1.882812 6.828125 -2.15625 C 7.242188 -2.425781 7.726562 -2.5625 8.28125 -2.5625 Z M 5.0625 -7.984375 C 4.789062 -7.984375 4.554688 -7.753906 4.359375 -7.296875 C 4.160156 -6.835938 4.0625 -6.285156 4.0625 -5.640625 C 4.0625 -4.984375 4.160156 -4.421875 4.359375 -3.953125 C 4.554688 -3.492188 4.789062 -3.265625 5.0625 -3.265625 C 5.332031 -3.265625 5.566406 -3.492188 5.765625 -3.953125 C 5.960938 -4.421875 6.0625 -4.984375 6.0625 -5.640625 C 6.0625 -6.285156 5.960938 -6.835938 5.765625 -7.296875 C 5.566406 -7.753906 5.332031 -7.984375 5.0625 -7.984375 Z M 5.0625 -7.984375 "/></g></g></g><g fill="#000000" fill-opacity="1"><g transform="translate(138.943707, 68.330242)"><g><path d="M 8.28125 -2.5625 C 8.882812 -2.5625 9.398438 -2.410156 9.828125 -2.109375 C 10.253906 -1.816406 10.554688 -1.429688 10.734375 -0.953125 C 10.921875 -0.484375 10.945312 0.0078125 10.8125 0.53125 C 10.6875 1.0625 10.359375 1.5625 9.828125 2.03125 C 9.296875 2.5 8.539062 2.878906 7.5625 3.171875 C 6.582031 3.472656 5.320312 3.625 3.78125 3.625 C 3.238281 3.625 2.644531 3.59375 2 3.53125 C 1.363281 3.46875 0.757812 3.359375 0.1875 3.203125 C -0.375 3.046875 -0.832031 2.820312 -1.1875 2.53125 C -1.644531 2.15625 -1.890625 1.78125 -1.921875 1.40625 C -1.953125 1.039062 -1.835938 0.71875 -1.578125 0.4375 C -1.328125 0.15625 -1.007812 -0.0507812 -0.625 -0.1875 C -0.25 -0.332031 0.125 -0.367188 0.5 -0.296875 C 0.882812 -0.234375 1.179688 -0.0351562 1.390625 0.296875 C 1.953125 1.179688 2.5625 1.78125 3.21875 2.09375 C 3.882812 2.40625 4.460938 2.5625 4.953125 2.5625 C 5.441406 2.5625 5.835938 2.457031 6.140625 2.25 C 6.453125 2.039062 6.675781 1.785156 6.8125 1.484375 C 6.957031 1.191406 7.015625 0.921875 6.984375 0.671875 C 6.953125 0.421875 6.828125 0.25 6.609375 0.15625 C 6.359375 0.0390625 6.101562 0.0234375 5.84375 0.109375 C 5.59375 0.203125 5.28125 0.304688 4.90625 0.421875 C 4.539062 0.535156 4.046875 0.570312 3.421875 0.53125 C 2.628906 0.476562 2.039062 0.300781 1.65625 0 C 1.269531 -0.300781 1.050781 -0.644531 1 -1.03125 C 0.957031 -1.425781 1.0625 -1.796875 1.3125 -2.140625 C 1.5625 -2.492188 1.921875 -2.742188 2.390625 -2.890625 C 1.679688 -3.203125 1.101562 -3.597656 0.65625 -4.078125 C 0.21875 -4.554688 0 -5.082031 0 -5.65625 C 0 -6.257812 0.226562 -6.804688 0.6875 -7.296875 C 1.144531 -7.785156 1.753906 -8.175781 2.515625 -8.46875 C 3.285156 -8.769531 4.132812 -8.921875 5.0625 -8.921875 C 5.28125 -8.921875 5.488281 -8.910156 5.6875 -8.890625 C 5.894531 -8.878906 6.097656 -8.859375 6.296875 -8.828125 C 6.472656 -9.128906 6.75 -9.421875 7.125 -9.703125 C 7.5 -9.984375 7.910156 -10.210938 8.359375 -10.390625 C 8.804688 -10.566406 9.226562 -10.640625 9.625 -10.609375 C 10.1875 -10.566406 10.554688 -10.410156 10.734375 -10.140625 C 10.921875 -9.867188 10.972656 -9.578125 10.890625 -9.265625 C 10.804688 -8.960938 10.640625 -8.710938 10.390625 -8.515625 C 10.148438 -8.316406 9.878906 -8.253906 9.578125 -8.328125 C 9.304688 -8.390625 9.007812 -8.429688 8.6875 -8.453125 C 8.375 -8.472656 8.070312 -8.460938 7.78125 -8.421875 C 8.488281 -8.128906 9.054688 -7.738281 9.484375 -7.25 C 9.910156 -6.769531 10.125 -6.238281 10.125 -5.65625 C 10.125 -5.0625 9.894531 -4.519531 9.4375 -4.03125 C 8.988281 -3.550781 8.378906 -3.160156 7.609375 -2.859375 C 6.835938 -2.566406 5.988281 -2.421875 5.0625 -2.421875 C 4.957031 -2.421875 4.84375 -2.421875 4.71875 -2.421875 C 4.601562 -2.421875 4.484375 -2.425781 4.359375 -2.4375 C 3.960938 -2.289062 3.628906 -2.046875 3.359375 -1.703125 C 3.097656 -1.359375 2.957031 -1.035156 2.9375 -0.734375 C 2.925781 -0.429688 3.09375 -0.25 3.4375 -0.1875 C 3.832031 -0.101562 4.207031 -0.175781 4.5625 -0.40625 C 4.925781 -0.632812 5.289062 -0.914062 5.65625 -1.25 C 6.019531 -1.582031 6.410156 -1.882812 6.828125 -2.15625 C 7.242188 -2.425781 7.726562 -2.5625 8.28125 -2.5625 Z M 5.0625 -7.984375 C 4.789062 -7.984375 4.554688 -7.753906 4.359375 -7.296875 C 4.160156 -6.835938 4.0625 -6.285156 4.0625 -5.640625 C 4.0625 -4.984375 4.160156 -4.421875 4.359375 -3.953125 C 4.554688 -3.492188 4.789062 -3.265625 5.0625 -3.265625 C 5.332031 -3.265625 5.566406 -3.492188 5.765625 -3.953125 C 5.960938 -4.421875 6.0625 -4.984375 6.0625 -5.640625 C 6.0625 -6.285156 5.960938 -6.835938 5.765625 -7.296875 C 5.566406 -7.753906 5.332031 -7.984375 5.0625 -7.984375 Z M 5.0625 -7.984375 "/></g></g></g><g fill="#000000" fill-opacity="1"><g transform="translate(149.641549, 68.330242)"><g><path d="M 9.015625 -7.890625 C 9.160156 -7.691406 9.203125 -7.457031 9.140625 -7.1875 C 9.085938 -6.914062 8.960938 -6.648438 8.765625 -6.390625 C 8.578125 -6.128906 8.347656 -5.925781 8.078125 -5.78125 C 7.816406 -5.632812 7.546875 -5.585938 7.265625 -5.640625 C 6.984375 -5.691406 6.722656 -5.894531 6.484375 -6.25 C 6.296875 -6.507812 6.097656 -6.753906 5.890625 -6.984375 C 5.691406 -7.210938 5.441406 -7.328125 5.140625 -7.328125 C 5.023438 -7.328125 4.890625 -7.269531 4.734375 -7.15625 C 4.578125 -7.039062 4.484375 -6.785156 4.453125 -6.390625 C 4.421875 -5.898438 4.398438 -5.390625 4.390625 -4.859375 C 4.378906 -4.328125 4.414062 -3.835938 4.5 -3.390625 C 4.582031 -2.941406 4.734375 -2.601562 4.953125 -2.375 C 5.054688 -2.269531 5.160156 -2.179688 5.265625 -2.109375 C 5.367188 -2.035156 5.410156 -1.929688 5.390625 -1.796875 C 5.359375 -1.566406 5.175781 -1.394531 4.84375 -1.28125 C 4.519531 -1.175781 4.148438 -1.101562 3.734375 -1.0625 C 3.316406 -1.019531 2.953125 -1 2.640625 -1 C 2.359375 -1 2.007812 -1.019531 1.59375 -1.0625 C 1.1875 -1.101562 0.828125 -1.175781 0.515625 -1.28125 C 0.203125 -1.394531 0.03125 -1.566406 0 -1.796875 C -0.0078125 -1.953125 0.0234375 -2.066406 0.109375 -2.140625 C 0.203125 -2.222656 0.300781 -2.316406 0.40625 -2.421875 C 0.53125 -2.523438 0.625 -2.722656 0.6875 -3.015625 C 0.757812 -3.316406 0.800781 -3.648438 0.8125 -4.015625 C 0.832031 -4.378906 0.816406 -4.71875 0.765625 -5.03125 C 0.710938 -5.351562 0.625 -5.59375 0.5 -5.75 C 0.394531 -5.90625 0.28125 -6.035156 0.15625 -6.140625 C 0.0390625 -6.253906 -0.0078125 -6.394531 0 -6.5625 C 0.03125 -6.789062 0.160156 -7 0.390625 -7.1875 C 0.628906 -7.382812 0.90625 -7.554688 1.21875 -7.703125 C 1.53125 -7.859375 1.816406 -8.003906 2.078125 -8.140625 C 2.273438 -8.234375 2.535156 -8.351562 2.859375 -8.5 C 3.191406 -8.65625 3.507812 -8.773438 3.8125 -8.859375 C 4.125 -8.941406 4.375 -8.941406 4.5625 -8.859375 C 4.75 -8.773438 4.796875 -8.550781 4.703125 -8.1875 C 4.703125 -8.15625 4.695312 -8.113281 4.6875 -8.0625 C 4.675781 -8.019531 4.664062 -7.960938 4.65625 -7.890625 C 4.914062 -8.191406 5.242188 -8.4375 5.640625 -8.625 C 6.035156 -8.820312 6.421875 -8.921875 6.796875 -8.921875 C 7.359375 -8.921875 7.820312 -8.8125 8.1875 -8.59375 C 8.550781 -8.382812 8.828125 -8.148438 9.015625 -7.890625 Z M 9.015625 -7.890625 "/></g></g></g><g fill="#000000" fill-opacity="1"><g transform="translate(158.94798, 68.330242)"><g><path d="M 2.375 -8.921875 C 1.90625 -8.921875 1.503906 -9.082031 1.171875 -9.40625 C 0.847656 -9.738281 0.6875 -10.140625 0.6875 -10.609375 C 0.6875 -11.078125 0.847656 -11.472656 1.171875 -11.796875 C 1.503906 -12.128906 1.90625 -12.296875 2.375 -12.296875 C 2.84375 -12.296875 3.238281 -12.128906 3.5625 -11.796875 C 3.894531 -11.472656 4.0625 -11.078125 4.0625 -10.609375 C 4.0625 -10.140625 3.894531 -9.738281 3.5625 -9.40625 C 3.238281 -9.082031 2.84375 -8.921875 2.375 -8.921875 Z M 4.703125 -8.1875 C 4.671875 -8.050781 4.628906 -7.800781 4.578125 -7.4375 C 4.523438 -7.070312 4.472656 -6.648438 4.421875 -6.171875 C 4.378906 -5.691406 4.359375 -5.203125 4.359375 -4.703125 C 4.367188 -4.203125 4.414062 -3.738281 4.5 -3.3125 C 4.582031 -2.894531 4.734375 -2.582031 4.953125 -2.375 C 5.054688 -2.269531 5.160156 -2.179688 5.265625 -2.109375 C 5.367188 -2.035156 5.410156 -1.929688 5.390625 -1.796875 C 5.359375 -1.566406 5.175781 -1.394531 4.84375 -1.28125 C 4.519531 -1.175781 4.148438 -1.101562 3.734375 -1.0625 C 3.316406 -1.019531 2.953125 -1 2.640625 -1 C 2.359375 -1 2.007812 -1.019531 1.59375 -1.0625 C 1.1875 -1.101562 0.828125 -1.175781 0.515625 -1.28125 C 0.203125 -1.394531 0.03125 -1.566406 0 -1.796875 C -0.0078125 -1.953125 0.0234375 -2.066406 0.109375 -2.140625 C 0.203125 -2.222656 0.300781 -2.316406 0.40625 -2.421875 C 0.53125 -2.523438 0.625 -2.722656 0.6875 -3.015625 C 0.757812 -3.316406 0.800781 -3.648438 0.8125 -4.015625 C 0.832031 -4.378906 0.816406 -4.71875 0.765625 -5.03125 C 0.710938 -5.351562 0.625 -5.59375 0.5 -5.75 C 0.394531 -5.90625 0.28125 -6.035156 0.15625 -6.140625 C 0.0390625 -6.253906 -0.0078125 -6.394531 0 -6.5625 C 0.03125 -6.789062 0.160156 -7 0.390625 -7.1875 C 0.628906 -7.382812 0.90625 -7.554688 1.21875 -7.703125 C 1.53125 -7.859375 1.816406 -8.003906 2.078125 -8.140625 C 2.273438 -8.234375 2.535156 -8.351562 2.859375 -8.5 C 3.191406 -8.65625 3.507812 -8.773438 3.8125 -8.859375 C 4.125 -8.941406 4.375 -8.941406 4.5625 -8.859375 C 4.75 -8.773438 4.796875 -8.550781 4.703125 -8.1875 Z M 4.703125 -8.1875 "/></g></g></g><g fill="#000000" fill-opacity="1"><g transform="translate(164.445159, 68.330242)"><g><path d="M 8.078125 -7.421875 C 8.242188 -7.078125 8.234375 -6.800781 8.046875 -6.59375 C 7.867188 -6.382812 7.597656 -6.234375 7.234375 -6.140625 C 6.878906 -6.054688 6.507812 -6.046875 6.125 -6.109375 C 5.738281 -6.171875 5.421875 -6.304688 5.171875 -6.515625 C 4.921875 -6.722656 4.816406 -7.015625 4.859375 -7.390625 C 4.921875 -7.785156 4.851562 -8.046875 4.65625 -8.171875 C 4.46875 -8.304688 4.265625 -8.332031 4.046875 -8.25 C 3.828125 -8.175781 3.6875 -8.019531 3.625 -7.78125 C 3.53125 -7.414062 3.613281 -7.09375 3.875 -6.8125 C 4.132812 -6.53125 4.476562 -6.265625 4.90625 -6.015625 C 5.34375 -5.773438 5.789062 -5.53125 6.25 -5.28125 C 6.707031 -5.039062 7.109375 -4.773438 7.453125 -4.484375 C 7.804688 -4.203125 8.015625 -3.863281 8.078125 -3.46875 C 8.148438 -3.070312 8.007812 -2.679688 7.65625 -2.296875 C 7.3125 -1.921875 6.832031 -1.609375 6.21875 -1.359375 C 5.601562 -1.117188 4.921875 -1 4.171875 -1 L 4.125 -1 C 3.59375 -1 3.050781 -1.050781 2.5 -1.15625 C 1.945312 -1.269531 1.457031 -1.4375 1.03125 -1.65625 C 0.601562 -1.875 0.296875 -2.160156 0.109375 -2.515625 C -0.0546875 -2.847656 -0.0507812 -3.117188 0.125 -3.328125 C 0.3125 -3.546875 0.582031 -3.695312 0.9375 -3.78125 C 1.300781 -3.863281 1.675781 -3.875 2.0625 -3.8125 C 2.445312 -3.75 2.765625 -3.613281 3.015625 -3.40625 C 3.273438 -3.207031 3.378906 -2.914062 3.328125 -2.53125 C 3.285156 -2.132812 3.347656 -1.867188 3.515625 -1.734375 C 3.691406 -1.609375 3.890625 -1.585938 4.109375 -1.671875 C 4.335938 -1.753906 4.488281 -1.910156 4.5625 -2.140625 C 4.664062 -2.503906 4.59375 -2.816406 4.34375 -3.078125 C 4.09375 -3.335938 3.742188 -3.570312 3.296875 -3.78125 C 2.859375 -4 2.40625 -4.222656 1.9375 -4.453125 C 1.46875 -4.691406 1.054688 -4.960938 0.703125 -5.265625 C 0.359375 -5.566406 0.160156 -5.929688 0.109375 -6.359375 C 0.046875 -6.890625 0.1875 -7.34375 0.53125 -7.71875 C 0.875 -8.101562 1.351562 -8.398438 1.96875 -8.609375 C 2.582031 -8.816406 3.265625 -8.921875 4.015625 -8.921875 L 4.0625 -8.921875 C 4.59375 -8.921875 5.132812 -8.863281 5.6875 -8.75 C 6.25 -8.644531 6.742188 -8.484375 7.171875 -8.265625 C 7.609375 -8.046875 7.910156 -7.765625 8.078125 -7.421875 Z M 8.078125 -7.421875 "/></g></g></g><g clip-path="url(#74b6e3542a)"><path fill="#00247d" d="M 87.445312 78.613281 C 94.519531 76.730469 101.59375 76.730469 108.671875 78.613281 C 115.746094 80.5 122.820312 80.5 129.894531 78.613281 L 129.894531 99.808594 C 122.820312 101.695312 115.746094 101.695312 108.671875 99.808594 C 101.59375 97.925781 94.519531 97.925781 87.445312 99.808594 Z M 87.445312 78.613281 " fill-opacity="1" fill-rule="nonzero"/></g><g clip-path="url(#5037b7e4c2)"><path fill="#ffffff" d="M 87.445312 78.613281 C 89.027344 78.195312 90.609375 77.867188 92.191406 77.632812 C 97.683594 79.566406 103.175781 82.636719 108.671875 86.84375 C 114.164062 85.5625 119.65625 83.148438 125.148438 79.597656 C 126.730469 79.363281 128.3125 79.035156 129.894531 78.617188 L 129.894531 80.984375 C 124.402344 85.191406 118.910156 88.261719 113.417969 90.195312 C 118.910156 93.746094 124.402344 96.160156 129.894531 97.441406 L 129.894531 99.808594 C 128.3125 100.230469 126.730469 100.558594 125.148438 100.792969 C 119.65625 98.855469 114.164062 95.789062 108.671875 91.582031 C 103.175781 92.863281 97.683594 95.277344 92.191406 98.828125 C 90.609375 99.0625 89.027344 99.386719 87.445312 99.808594 L 87.445312 97.441406 C 92.9375 93.234375 98.429688 90.164062 103.925781 88.230469 C 98.429688 84.679688 92.9375 82.265625 87.445312 80.984375 Z M 87.445312 78.613281 " fill-opacity="1" fill-rule="nonzero"/></g><g clip-path="url(#faf63d2900)"><path fill="#cf142b" d="M 87.445312 78.613281 C 94.519531 80.261719 101.59375 83.796875 108.671875 89.210938 C 107.613281 88.929688 106.558594 88.691406 105.507812 88.496094 C 99.484375 84.363281 93.464844 81.597656 87.445312 80.195312 Z M 108.671875 87.632812 C 114.691406 86.230469 120.710938 83.464844 126.730469 79.332031 C 127.785156 79.136719 128.839844 78.894531 129.894531 78.613281 C 122.820312 84.03125 115.746094 87.5625 108.671875 89.210938 Z M 129.894531 99.808594 C 122.820312 98.160156 115.746094 94.628906 108.671875 89.210938 C 109.726562 89.492188 110.78125 89.730469 111.835938 89.929688 C 117.855469 94.058594 123.875 96.828125 129.894531 98.230469 Z M 108.671875 90.792969 C 102.648438 92.195312 96.628906 94.960938 90.609375 99.09375 C 89.554688 99.289062 88.5 99.527344 87.445312 99.808594 C 94.519531 94.394531 101.59375 90.859375 108.667969 89.210938 Z M 108.671875 90.792969 " fill-opacity="1" fill-rule="nonzero"/></g><g clip-path="url(#d695f3a27a)"><path fill="#ffffff" d="M 105.132812 77.828125 C 106.3125 78.039062 107.492188 78.300781 108.671875 78.613281 C 109.847656 78.929688 111.027344 79.191406 112.207031 79.398438 L 112.207031 86.464844 C 118.101562 87.511719 124 87.25 129.894531 85.679688 L 129.894531 92.746094 C 124 94.316406 118.101562 94.578125 112.207031 93.53125 L 112.207031 100.59375 C 111.027344 100.386719 109.847656 100.125 108.671875 99.808594 C 107.492188 99.496094 106.3125 99.234375 105.132812 99.023438 L 105.132812 91.960938 C 99.238281 90.914062 93.339844 91.175781 87.445312 92.746094 L 87.445312 85.679688 C 93.339844 84.109375 99.238281 83.847656 105.132812 84.894531 Z M 105.132812 77.828125 " fill-opacity="1" fill-rule="nonzero"/></g><g clip-path="url(#7f8ce74fe3)"><path fill="#cf142b" d="M 106.546875 78.105469 C 107.253906 78.257812 107.960938 78.425781 108.671875 78.613281 C 109.378906 78.804688 110.085938 78.972656 110.792969 79.125 L 110.792969 87.601562 C 117.160156 88.957031 123.527344 88.789062 129.894531 87.09375 L 129.894531 91.332031 C 123.527344 93.027344 117.160156 93.195312 110.792969 91.839844 L 110.792969 100.320312 C 110.085938 100.167969 109.378906 100 108.671875 99.808594 C 107.960938 99.621094 107.253906 99.453125 106.546875 99.300781 L 106.546875 90.824219 C 100.179688 89.464844 93.8125 89.636719 87.445312 91.332031 L 87.445312 87.09375 C 93.8125 85.398438 100.179688 85.226562 106.546875 86.585938 Z M 106.546875 78.105469 " fill-opacity="1" fill-rule="nonzero"/></g></svg>