<svg xmlns="http://www.w3.org/2000/svg" xmlns:xlink="http://www.w3.org/1999/xlink" width="290" zoomAndPan="magnify" viewBox="0 0 217.5 131.249995" height="175" preserveAspectRatio="xMidYMid meet" version="1.0"><defs><g/><clipPath id="f0dfccc8a3"><path d="M 0.371094 0 L 216.632812 0 L 216.632812 130.503906 L 0.371094 130.503906 Z M 0.371094 0 " clip-rule="nonzero"/></clipPath><clipPath id="773e0cf957"><path d="M 183.710938 0 L 216.632812 0 L 216.632812 38.820312 L 183.710938 38.820312 Z M 183.710938 0 " clip-rule="nonzero"/></clipPath><clipPath id="8fd7224e1a"><path d="M 210.113281 -13.984375 C 195.53125 -13.984375 183.710938 -2.164062 183.710938 12.417969 C 183.710938 27 195.53125 38.820312 210.113281 38.820312 C 224.699219 38.820312 236.519531 27 236.519531 12.417969 C 236.519531 -2.164062 224.699219 -13.984375 210.113281 -13.984375 Z M 210.113281 -13.984375 " clip-rule="nonzero"/></clipPath><clipPath id="dc9b18ea61"><path d="M 188.515625 0 L 216.632812 0 L 216.632812 34.019531 L 188.515625 34.019531 Z M 188.515625 0 " clip-rule="nonzero"/></clipPath><clipPath id="c9698518ea"><path d="M 210.113281 -9.183594 C 198.183594 -9.183594 188.515625 0.488281 188.515625 12.417969 C 188.515625 24.347656 198.183594 34.019531 210.113281 34.019531 C 222.042969 34.019531 231.714844 24.347656 231.714844 12.417969 C 231.714844 0.488281 222.042969 -9.183594 210.113281 -9.183594 Z M 210.113281 -9.183594 " clip-rule="nonzero"/></clipPath><clipPath id="8a28bf980d"><path d="M 38.277344 25.339844 L 46.9375 25.339844 L 46.9375 33.996094 L 38.277344 33.996094 Z M 38.277344 25.339844 " clip-rule="nonzero"/></clipPath><clipPath id="7516e68066"><path d="M 42.621094 25.339844 C 40.222656 25.339844 38.277344 27.285156 38.277344 29.683594 C 38.277344 32.082031 40.222656 34.023438 42.621094 34.023438 C 45.019531 34.023438 46.964844 32.082031 46.964844 29.683594 C 46.964844 27.285156 45.019531 25.339844 42.621094 25.339844 Z M 42.621094 25.339844 " clip-rule="nonzero"/></clipPath><clipPath id="c44e25b580"><path d="M 188 101 L 190 101 L 190 130.503906 L 188 130.503906 Z M 188 101 " clip-rule="nonzero"/></clipPath><clipPath id="5217b99853"><path d="M 196 83 L 198 83 L 198 130.503906 L 196 130.503906 Z M 196 83 " clip-rule="nonzero"/></clipPath><clipPath id="64c5cb4ec4"><path d="M 204 64 L 206 64 L 206 130.503906 L 204 130.503906 Z M 204 64 " clip-rule="nonzero"/></clipPath><clipPath id="50113d6743"><path d="M 10.492188 105.9375 L 14.820312 105.9375 L 14.820312 110.265625 L 10.492188 110.265625 Z M 10.492188 105.9375 " clip-rule="nonzero"/></clipPath><clipPath id="c268be74d5"><path d="M 12.664062 105.9375 C 11.464844 105.9375 10.492188 106.910156 10.492188 108.109375 C 10.492188 109.308594 11.464844 110.28125 12.664062 110.28125 C 13.863281 110.28125 14.835938 109.308594 14.835938 108.109375 C 14.835938 106.910156 13.863281 105.9375 12.664062 105.9375 Z M 12.664062 105.9375 " clip-rule="nonzero"/></clipPath><clipPath id="2eb2e8bb9e"><path d="M 81 76.507812 L 122.246094 76.507812 L 122.246094 94 L 81 94 Z M 81 76.507812 " clip-rule="nonzero"/></clipPath><clipPath id="eb962c5077"><path d="M 81 88 L 122.246094 88 L 122.246094 105 L 81 105 Z M 81 88 " clip-rule="nonzero"/></clipPath><clipPath id="baf51fb26f"><path d="M 80.679688 79 L 83 79 L 83 121.535156 L 80.679688 121.535156 Z M 80.679688 79 " clip-rule="nonzero"/></clipPath></defs><g clip-path="url(#f0dfccc8a3)"><path fill="#ffffff" d="M 0.371094 0 L 216.632812 0 L 216.632812 130.503906 L 0.371094 130.503906 Z M 0.371094 0 " fill-opacity="1" fill-rule="nonzero"/><path fill="#f3e0ff" d="M 0.371094 0 L 216.632812 0 L 216.632812 130.503906 L 0.371094 130.503906 Z M 0.371094 0 " fill-opacity="1" fill-rule="nonzero"/></g><g clip-path="url(#773e0cf957)"><g clip-path="url(#8fd7224e1a)"><path stroke-linecap="butt" transform="matrix(0.865922, 0, 0, 0.865922, 183.711366, -13.985812)" fill="none" stroke-linejoin="miter" d="M 30.494441 0.00165927 C 13.650049 0.00165927 -0.00049463 13.652203 -0.00049463 30.492084 C -0.00049463 47.331965 13.650049 60.982508 30.494441 60.982508 C 47.334322 60.982508 60.984865 47.331965 60.984865 30.492084 C 60.984865 13.652203 47.334322 0.00165927 30.494441 0.00165927 Z M 30.494441 0.00165927 " stroke="#6c52cf" stroke-width="1.722414" stroke-opacity="1" stroke-miterlimit="4"/></g></g><g clip-path="url(#dc9b18ea61)"><g clip-path="url(#c9698518ea)"><path stroke-linecap="butt" transform="matrix(0.865923, 0, 0, 0.865923, 188.514185, -9.182984)" fill="none" stroke-linejoin="miter" d="M 24.943452 -0.000704107 C 11.166598 -0.000704107 0.00166327 11.168742 0.00166327 24.945595 C 0.00166327 38.722449 11.166598 49.891895 24.943452 49.891895 C 38.720305 49.891895 49.889751 38.722449 49.889751 24.945595 C 49.889751 11.168742 38.720305 -0.000704107 24.943452 -0.000704107 Z M 24.943452 -0.000704107 " stroke="#6c52cf" stroke-width="1.722414" stroke-opacity="1" stroke-miterlimit="4"/></g></g><g clip-path="url(#8a28bf980d)"><g clip-path="url(#7516e68066)"><path stroke-linecap="butt" transform="matrix(0.865922, 0, 0, 0.865922, 38.278517, 25.338808)" fill="none" stroke-linejoin="miter" d="M 5.014972 0.00119571 C 2.245165 0.00119571 -0.00135498 2.247716 -0.00135498 5.017522 C -0.00135498 7.787329 2.245165 10.029338 5.014972 10.029338 C 7.784778 10.029338 10.031298 7.787329 10.031298 5.017522 C 10.031298 2.247716 7.784778 0.00119571 5.014972 0.00119571 Z M 5.014972 0.00119571 " stroke="#6c52cf" stroke-width="1.722414" stroke-opacity="1" stroke-miterlimit="4"/></g></g><path stroke-linecap="butt" transform="matrix(0, 0.865923, -0.865923, 0, 15.266042, -10.599991)" fill="none" stroke-linejoin="miter" d="M -0.00181466 0.501212 L 87.598943 0.501212 " stroke="#6c52cf" stroke-width="1" stroke-opacity="1" stroke-miterlimit="4"/><path stroke-linecap="butt" transform="matrix(0, 0.865923, -0.865923, 0, 23.496446, -28.957547)" fill="none" stroke-linejoin="miter" d="M 0.0005956 0.501137 L 87.601353 0.501137 " stroke="#6c52cf" stroke-width="1" stroke-opacity="1" stroke-miterlimit="4"/><path stroke-linecap="butt" transform="matrix(0, 0.865923, -0.865923, 0, 31.726847, -47.315104)" fill="none" stroke-linejoin="miter" d="M -0.00150357 0.501059 L 87.599254 0.501059 " stroke="#6c52cf" stroke-width="1" stroke-opacity="1" stroke-miterlimit="4"/><g clip-path="url(#c44e25b580)"><path stroke-linecap="butt" transform="matrix(0, 0.865923, -0.865923, 0, 189.377406, 101.969939)" fill="none" stroke-linejoin="miter" d="M -0.0013729 0.498998 L 87.599385 0.498998 " stroke="#6c52cf" stroke-width="1" stroke-opacity="1" stroke-miterlimit="4"/></g><g clip-path="url(#5217b99853)"><path stroke-linecap="butt" transform="matrix(0, 0.865923, -0.865923, 0, 197.607795, 83.612382)" fill="none" stroke-linejoin="miter" d="M 0.00103819 0.498906 L 87.601796 0.498906 " stroke="#6c52cf" stroke-width="1" stroke-opacity="1" stroke-miterlimit="4"/></g><g clip-path="url(#64c5cb4ec4)"><path stroke-linecap="butt" transform="matrix(0, 0.865923, -0.865923, 0, 205.838214, 65.254826)" fill="none" stroke-linejoin="miter" d="M -0.00106181 0.498849 L 87.599696 0.498849 " stroke="#6c52cf" stroke-width="1" stroke-opacity="1" stroke-miterlimit="4"/></g><g clip-path="url(#50113d6743)"><g clip-path="url(#c268be74d5)"><path stroke-linecap="butt" transform="matrix(0.865922, 0, 0, 0.865922, 10.492634, 105.936941)" fill="none" stroke-linejoin="miter" d="M 2.507647 0.000645428 C 1.122744 0.000645428 -0.000516174 1.123906 -0.000516174 2.508809 C -0.000516174 3.893712 1.122744 5.016972 2.507647 5.016972 C 3.89255 5.016972 5.015811 3.893712 5.015811 2.508809 C 5.015811 1.123906 3.89255 0.000645428 2.507647 0.000645428 Z M 2.507647 0.000645428 " stroke="#6c52cf" stroke-width="1.722414" stroke-opacity="1" stroke-miterlimit="4"/></g></g><path stroke-linecap="butt" transform="matrix(0, 0.865923, -0.865923, 0, 71.082863, 101.970115)" fill="none" stroke-linejoin="miter" d="M -0.00157683 0.50169 L 6.038766 0.50169 " stroke="#6c52cf" stroke-width="1" stroke-opacity="1" stroke-miterlimit="4"/><path stroke-linecap="butt" transform="matrix(0.865923, 0, 0, 0.865923, 68.038603, 104.157263)" fill="none" stroke-linejoin="miter" d="M 0.000531139 0.499561 L 6.036363 0.499561 " stroke="#6c52cf" stroke-width="1" stroke-opacity="1" stroke-miterlimit="4"/><path stroke-linecap="butt" transform="matrix(0, 0.865923, -0.865923, 0, 150.430714, 27.070664)" fill="none" stroke-linejoin="miter" d="M -0.000406359 0.501916 L 6.039936 0.501916 " stroke="#6c52cf" stroke-width="1" stroke-opacity="1" stroke-miterlimit="4"/><path stroke-linecap="butt" transform="matrix(0.865923, 0, 0, 0.865923, 147.38644, 29.257827)" fill="none" stroke-linejoin="miter" d="M 0.000322126 0.500714 L 6.036154 0.500714 " stroke="#6c52cf" stroke-width="1" stroke-opacity="1" stroke-miterlimit="4"/><g clip-path="url(#2eb2e8bb9e)"><path fill="#ed1c24" d="M 81.957031 79.417969 C 82.988281 79.863281 83.984375 80.351562 85.023438 80.730469 C 87.417969 81.605469 89.90625 81.777344 92.429688 81.558594 C 96.199219 81.234375 99.757812 79.992188 103.367188 78.980469 C 105.730469 78.320312 108.105469 77.667969 110.515625 77.238281 C 114.582031 76.511719 118.523438 76.96875 122.203125 79.003906 C 122.546875 79.195312 122.667969 79.40625 122.667969 79.796875 C 122.65625 83.449219 122.660156 87.097656 122.660156 90.75 C 122.660156 90.84375 122.648438 90.933594 122.632812 91.101562 C 122.46875 91.011719 122.339844 90.945312 122.214844 90.871094 C 119.023438 89.109375 115.601562 88.539062 112 88.898438 C 108.5 89.242188 105.179688 90.335938 101.820312 91.285156 C 99.386719 91.972656 96.941406 92.660156 94.460938 93.140625 C 90.226562 93.960938 86.121094 93.53125 82.292969 91.367188 C 82.054688 91.234375 81.925781 91.097656 81.925781 90.800781 C 81.933594 87.089844 81.929688 83.375 81.929688 79.664062 C 81.929688 79.574219 81.949219 79.484375 81.957031 79.417969 Z M 81.957031 79.417969 " fill-opacity="1" fill-rule="nonzero"/></g><g clip-path="url(#eb962c5077)"><path fill="#ffffff" d="M 81.957031 90.886719 C 82.988281 91.332031 83.984375 91.816406 85.023438 92.199219 C 87.417969 93.074219 89.90625 93.242188 92.429688 93.027344 C 96.199219 92.699219 99.757812 91.460938 103.367188 90.449219 C 105.730469 89.789062 108.105469 89.136719 110.515625 88.707031 C 114.582031 87.980469 118.523438 88.4375 122.203125 90.472656 C 122.546875 90.664062 122.667969 90.875 122.667969 91.265625 C 122.65625 94.917969 122.660156 98.566406 122.660156 102.21875 C 122.660156 102.308594 122.648438 102.398438 122.632812 102.566406 C 122.46875 102.480469 122.339844 102.410156 122.214844 102.339844 C 119.023438 100.574219 115.601562 100.007812 112 100.363281 C 108.5 100.710938 105.179688 101.800781 101.820312 102.753906 C 99.386719 103.441406 96.941406 104.128906 94.460938 104.609375 C 90.226562 105.429688 86.121094 105 82.292969 102.835938 C 82.054688 102.703125 81.925781 102.5625 81.925781 102.269531 C 81.933594 98.554688 81.929688 94.84375 81.929688 91.128906 C 81.929688 91.042969 81.949219 90.953125 81.957031 90.886719 Z M 81.957031 90.886719 " fill-opacity="1" fill-rule="nonzero"/></g><g clip-path="url(#baf51fb26f)"><path fill="#f3e0ff" d="M 81.089844 79.105469 L 82.070312 79.105469 C 82.183594 79.105469 82.277344 79.148438 82.359375 79.226562 C 82.441406 79.308594 82.480469 79.402344 82.480469 79.519531 L 82.480469 121.132812 C 82.480469 121.246094 82.441406 121.339844 82.359375 121.421875 C 82.277344 121.5 82.183594 121.542969 82.070312 121.542969 L 81.089844 121.542969 C 80.976562 121.542969 80.882812 121.5 80.800781 121.421875 C 80.722656 121.339844 80.679688 121.246094 80.679688 121.132812 L 80.679688 79.519531 C 80.679688 79.402344 80.722656 79.308594 80.800781 79.226562 C 80.882812 79.148438 80.976562 79.105469 81.089844 79.105469 Z M 81.089844 79.105469 " fill-opacity="1" fill-rule="nonzero"/></g><g fill="#000000" fill-opacity="1"><g transform="translate(12.679072, 68.330242)"><g><path d="M 5.8125 -12.453125 C 6.65625 -12.453125 7.414062 -12.285156 8.09375 -11.953125 C 8.78125 -11.617188 9.328125 -11.175781 9.734375 -10.625 C 10.148438 -10.082031 10.359375 -9.484375 10.359375 -8.828125 C 10.359375 -8.191406 10.148438 -7.597656 9.734375 -7.046875 C 9.328125 -6.503906 8.78125 -6.0625 8.09375 -5.71875 C 7.414062 -5.382812 6.65625 -5.21875 5.8125 -5.21875 L 4.515625 -5.21875 C 4.578125 -4.226562 4.726562 -3.582031 4.96875 -3.28125 C 5.101562 -3.132812 5.234375 -2.945312 5.359375 -2.71875 C 5.484375 -2.488281 5.546875 -2.265625 5.546875 -2.046875 C 5.546875 -1.765625 5.421875 -1.546875 5.171875 -1.390625 C 4.921875 -1.234375 4.59375 -1.128906 4.1875 -1.078125 C 3.78125 -1.023438 3.34375 -1 2.875 -1 L 2.671875 -1 C 2.210938 -1 1.773438 -1.023438 1.359375 -1.078125 C 0.953125 -1.128906 0.625 -1.234375 0.375 -1.390625 C 0.125 -1.546875 0 -1.765625 0 -2.046875 C 0 -2.265625 0.0546875 -2.488281 0.171875 -2.71875 C 0.296875 -2.945312 0.421875 -3.132812 0.546875 -3.28125 C 0.710938 -3.476562 0.832031 -3.8125 0.90625 -4.28125 C 0.988281 -4.757812 1.035156 -5.300781 1.046875 -5.90625 C 1.066406 -6.519531 1.050781 -7.125 1 -7.71875 C 0.957031 -8.320312 0.882812 -8.851562 0.78125 -9.3125 C 0.6875 -9.78125 0.578125 -10.101562 0.453125 -10.28125 C 0.347656 -10.425781 0.242188 -10.601562 0.140625 -10.8125 C 0.046875 -11.019531 0 -11.21875 0 -11.40625 C 0 -11.695312 0.125 -11.914062 0.375 -12.0625 C 0.625 -12.21875 0.953125 -12.320312 1.359375 -12.375 C 1.773438 -12.425781 2.210938 -12.453125 2.671875 -12.453125 Z M 5.359375 -6.109375 C 5.660156 -6.109375 5.941406 -6.25 6.203125 -6.53125 C 6.460938 -6.8125 6.675781 -7.164062 6.84375 -7.59375 C 7.007812 -8.019531 7.09375 -8.429688 7.09375 -8.828125 C 7.09375 -9.234375 7.007812 -9.644531 6.84375 -10.0625 C 6.6875 -10.488281 6.476562 -10.84375 6.21875 -11.125 C 5.96875 -11.414062 5.679688 -11.5625 5.359375 -11.5625 C 5.117188 -11.5625 4.921875 -11.378906 4.765625 -11.015625 C 4.617188 -10.648438 4.519531 -10.195312 4.46875 -9.65625 C 4.425781 -9.113281 4.425781 -8.566406 4.46875 -8.015625 C 4.519531 -7.472656 4.617188 -7.019531 4.765625 -6.65625 C 4.921875 -6.289062 5.117188 -6.109375 5.359375 -6.109375 Z M 5.359375 -6.109375 "/></g></g></g><g fill="#000000" fill-opacity="1"><g transform="translate(23.240056, 68.330242)"><g><path d="M 7.796875 -4.578125 C 7.960938 -4.773438 8.117188 -4.832031 8.265625 -4.75 C 8.410156 -4.664062 8.46875 -4.523438 8.4375 -4.328125 L 8.390625 -4.109375 C 8.253906 -3.515625 7.988281 -2.984375 7.59375 -2.515625 C 7.195312 -2.054688 6.707031 -1.6875 6.125 -1.40625 C 5.550781 -1.132812 4.925781 -1 4.25 -1 C 3.46875 -1 2.753906 -1.175781 2.109375 -1.53125 C 1.472656 -1.894531 0.960938 -2.375 0.578125 -2.96875 C 0.191406 -3.570312 0 -4.234375 0 -4.953125 C 0 -5.679688 0.191406 -6.34375 0.578125 -6.9375 C 0.960938 -7.539062 1.472656 -8.019531 2.109375 -8.375 C 2.753906 -8.738281 3.46875 -8.921875 4.25 -8.921875 C 5.007812 -8.921875 5.703125 -8.773438 6.328125 -8.484375 C 6.960938 -8.191406 7.414062 -7.78125 7.6875 -7.25 C 7.851562 -6.914062 7.875 -6.5625 7.75 -6.1875 C 7.632812 -5.820312 7.414062 -5.476562 7.09375 -5.15625 C 6.769531 -4.832031 6.394531 -4.570312 5.96875 -4.375 C 5.550781 -4.175781 5.128906 -4.078125 4.703125 -4.078125 C 4.503906 -4.078125 4.304688 -4.09375 4.109375 -4.125 C 3.921875 -4.15625 3.753906 -4.203125 3.609375 -4.265625 C 3.835938 -3.765625 4.191406 -3.445312 4.671875 -3.3125 C 5.148438 -3.175781 5.671875 -3.21875 6.234375 -3.4375 C 6.796875 -3.65625 7.316406 -4.035156 7.796875 -4.578125 Z M 4.25 -8.03125 C 4.050781 -8.03125 3.882812 -7.890625 3.75 -7.609375 C 3.625 -7.328125 3.53125 -6.988281 3.46875 -6.59375 C 3.40625 -6.207031 3.375 -5.847656 3.375 -5.515625 C 3.375 -5.285156 3.394531 -5.066406 3.4375 -4.859375 C 3.457031 -4.890625 3.503906 -4.921875 3.578125 -4.953125 C 3.929688 -5.160156 4.1875 -5.4375 4.34375 -5.78125 C 4.5 -6.125 4.59375 -6.46875 4.625 -6.8125 C 4.65625 -7.15625 4.632812 -7.441406 4.5625 -7.671875 C 4.488281 -7.910156 4.382812 -8.03125 4.25 -8.03125 Z M 4.25 -8.03125 "/></g></g></g><g fill="#000000" fill-opacity="1"><g transform="translate(31.885007, 68.330242)"><g><path d="M 6.640625 -8.921875 C 7.328125 -8.921875 7.875 -8.734375 8.28125 -8.359375 C 8.6875 -7.984375 9.007812 -7.507812 9.25 -6.9375 C 9.488281 -6.375 9.675781 -5.78125 9.8125 -5.15625 C 9.957031 -4.53125 10.097656 -3.96875 10.234375 -3.46875 C 10.378906 -2.96875 10.554688 -2.601562 10.765625 -2.375 C 10.867188 -2.269531 10.972656 -2.179688 11.078125 -2.109375 C 11.191406 -2.035156 11.234375 -1.929688 11.203125 -1.796875 C 11.171875 -1.566406 11.023438 -1.394531 10.765625 -1.28125 C 10.503906 -1.175781 10.203125 -1.101562 9.859375 -1.0625 C 9.523438 -1.019531 9.203125 -1 8.890625 -1 C 8.609375 -1 8.269531 -1.054688 7.875 -1.171875 C 7.488281 -1.285156 7.148438 -1.5 6.859375 -1.8125 C 6.578125 -2.132812 6.4375 -2.609375 6.4375 -3.234375 L 6.4375 -6.390625 C 6.4375 -6.953125 6.363281 -7.316406 6.21875 -7.484375 C 6.082031 -7.660156 5.910156 -7.695312 5.703125 -7.59375 C 5.503906 -7.488281 5.300781 -7.285156 5.09375 -6.984375 C 4.894531 -6.679688 4.722656 -6.332031 4.578125 -5.9375 C 4.441406 -5.539062 4.375 -5.148438 4.375 -4.765625 C 4.375 -4.265625 4.414062 -3.796875 4.5 -3.359375 C 4.582031 -2.929688 4.734375 -2.601562 4.953125 -2.375 C 5.054688 -2.269531 5.160156 -2.179688 5.265625 -2.109375 C 5.367188 -2.035156 5.410156 -1.929688 5.390625 -1.796875 C 5.359375 -1.566406 5.175781 -1.394531 4.84375 -1.28125 C 4.519531 -1.175781 4.148438 -1.101562 3.734375 -1.0625 C 3.316406 -1.019531 2.953125 -1 2.640625 -1 C 2.359375 -1 2.007812 -1.019531 1.59375 -1.0625 C 1.1875 -1.101562 0.828125 -1.175781 0.515625 -1.28125 C 0.203125 -1.394531 0.03125 -1.566406 0 -1.796875 C -0.0078125 -1.953125 0.0234375 -2.066406 0.109375 -2.140625 C 0.203125 -2.222656 0.300781 -2.316406 0.40625 -2.421875 C 0.53125 -2.523438 0.625 -2.722656 0.6875 -3.015625 C 0.757812 -3.316406 0.800781 -3.648438 0.8125 -4.015625 C 0.832031 -4.378906 0.816406 -4.71875 0.765625 -5.03125 C 0.710938 -5.351562 0.625 -5.59375 0.5 -5.75 C 0.394531 -5.90625 0.28125 -6.035156 0.15625 -6.140625 C 0.0390625 -6.253906 -0.0078125 -6.394531 0 -6.5625 C 0.03125 -6.789062 0.160156 -7 0.390625 -7.1875 C 0.628906 -7.382812 0.90625 -7.554688 1.21875 -7.703125 C 1.53125 -7.859375 1.816406 -8.003906 2.078125 -8.140625 C 2.273438 -8.234375 2.535156 -8.351562 2.859375 -8.5 C 3.191406 -8.65625 3.507812 -8.773438 3.8125 -8.859375 C 4.125 -8.941406 4.375 -8.941406 4.5625 -8.859375 C 4.75 -8.773438 4.796875 -8.550781 4.703125 -8.1875 L 4.578125 -7.5 C 4.859375 -7.988281 5.195312 -8.347656 5.59375 -8.578125 C 5.988281 -8.804688 6.335938 -8.921875 6.640625 -8.921875 Z M 6.640625 -8.921875 "/></g></g></g><g fill="#000000" fill-opacity="1"><g transform="translate(43.289953, 68.330242)"><g><path d="M 8.28125 -2.5625 C 8.882812 -2.5625 9.398438 -2.410156 9.828125 -2.109375 C 10.253906 -1.816406 10.554688 -1.429688 10.734375 -0.953125 C 10.921875 -0.484375 10.945312 0.0078125 10.8125 0.53125 C 10.6875 1.0625 10.359375 1.5625 9.828125 2.03125 C 9.296875 2.5 8.539062 2.878906 7.5625 3.171875 C 6.582031 3.472656 5.320312 3.625 3.78125 3.625 C 3.238281 3.625 2.644531 3.59375 2 3.53125 C 1.363281 3.46875 0.757812 3.359375 0.1875 3.203125 C -0.375 3.046875 -0.832031 2.820312 -1.1875 2.53125 C -1.644531 2.15625 -1.890625 1.78125 -1.921875 1.40625 C -1.953125 1.039062 -1.835938 0.71875 -1.578125 0.4375 C -1.328125 0.15625 -1.007812 -0.0507812 -0.625 -0.1875 C -0.25 -0.332031 0.125 -0.367188 0.5 -0.296875 C 0.882812 -0.234375 1.179688 -0.0351562 1.390625 0.296875 C 1.953125 1.179688 2.5625 1.78125 3.21875 2.09375 C 3.882812 2.40625 4.460938 2.5625 4.953125 2.5625 C 5.441406 2.5625 5.835938 2.457031 6.140625 2.25 C 6.453125 2.039062 6.675781 1.785156 6.8125 1.484375 C 6.957031 1.191406 7.015625 0.921875 6.984375 0.671875 C 6.953125 0.421875 6.828125 0.25 6.609375 0.15625 C 6.359375 0.0390625 6.101562 0.0234375 5.84375 0.109375 C 5.59375 0.203125 5.28125 0.304688 4.90625 0.421875 C 4.539062 0.535156 4.046875 0.570312 3.421875 0.53125 C 2.628906 0.476562 2.039062 0.300781 1.65625 0 C 1.269531 -0.300781 1.050781 -0.644531 1 -1.03125 C 0.957031 -1.425781 1.0625 -1.796875 1.3125 -2.140625 C 1.5625 -2.492188 1.921875 -2.742188 2.390625 -2.890625 C 1.679688 -3.203125 1.101562 -3.597656 0.65625 -4.078125 C 0.21875 -4.554688 0 -5.082031 0 -5.65625 C 0 -6.257812 0.226562 -6.804688 0.6875 -7.296875 C 1.144531 -7.785156 1.753906 -8.175781 2.515625 -8.46875 C 3.285156 -8.769531 4.132812 -8.921875 5.0625 -8.921875 C 5.28125 -8.921875 5.488281 -8.910156 5.6875 -8.890625 C 5.894531 -8.878906 6.097656 -8.859375 6.296875 -8.828125 C 6.472656 -9.128906 6.75 -9.421875 7.125 -9.703125 C 7.5 -9.984375 7.910156 -10.210938 8.359375 -10.390625 C 8.804688 -10.566406 9.226562 -10.640625 9.625 -10.609375 C 10.1875 -10.566406 10.554688 -10.410156 10.734375 -10.140625 C 10.921875 -9.867188 10.972656 -9.578125 10.890625 -9.265625 C 10.804688 -8.960938 10.640625 -8.710938 10.390625 -8.515625 C 10.148438 -8.316406 9.878906 -8.253906 9.578125 -8.328125 C 9.304688 -8.390625 9.007812 -8.429688 8.6875 -8.453125 C 8.375 -8.472656 8.070312 -8.460938 7.78125 -8.421875 C 8.488281 -8.128906 9.054688 -7.738281 9.484375 -7.25 C 9.910156 -6.769531 10.125 -6.238281 10.125 -5.65625 C 10.125 -5.0625 9.894531 -4.519531 9.4375 -4.03125 C 8.988281 -3.550781 8.378906 -3.160156 7.609375 -2.859375 C 6.835938 -2.566406 5.988281 -2.421875 5.0625 -2.421875 C 4.957031 -2.421875 4.84375 -2.421875 4.71875 -2.421875 C 4.601562 -2.421875 4.484375 -2.425781 4.359375 -2.4375 C 3.960938 -2.289062 3.628906 -2.046875 3.359375 -1.703125 C 3.097656 -1.359375 2.957031 -1.035156 2.9375 -0.734375 C 2.925781 -0.429688 3.09375 -0.25 3.4375 -0.1875 C 3.832031 -0.101562 4.207031 -0.175781 4.5625 -0.40625 C 4.925781 -0.632812 5.289062 -0.914062 5.65625 -1.25 C 6.019531 -1.582031 6.410156 -1.882812 6.828125 -2.15625 C 7.242188 -2.425781 7.726562 -2.5625 8.28125 -2.5625 Z M 5.0625 -7.984375 C 4.789062 -7.984375 4.554688 -7.753906 4.359375 -7.296875 C 4.160156 -6.835938 4.0625 -6.285156 4.0625 -5.640625 C 4.0625 -4.984375 4.160156 -4.421875 4.359375 -3.953125 C 4.554688 -3.492188 4.789062 -3.265625 5.0625 -3.265625 C 5.332031 -3.265625 5.566406 -3.492188 5.765625 -3.953125 C 5.960938 -4.421875 6.0625 -4.984375 6.0625 -5.640625 C 6.0625 -6.285156 5.960938 -6.835938 5.765625 -7.296875 C 5.566406 -7.753906 5.332031 -7.984375 5.0625 -7.984375 Z M 5.0625 -7.984375 "/></g></g></g><g fill="#000000" fill-opacity="1"><g transform="translate(53.987796, 68.330242)"><g><path d="M 7.796875 -4.578125 C 7.960938 -4.773438 8.117188 -4.832031 8.265625 -4.75 C 8.410156 -4.664062 8.46875 -4.523438 8.4375 -4.328125 L 8.390625 -4.109375 C 8.253906 -3.515625 7.988281 -2.984375 7.59375 -2.515625 C 7.195312 -2.054688 6.707031 -1.6875 6.125 -1.40625 C 5.550781 -1.132812 4.925781 -1 4.25 -1 C 3.46875 -1 2.753906 -1.175781 2.109375 -1.53125 C 1.472656 -1.894531 0.960938 -2.375 0.578125 -2.96875 C 0.191406 -3.570312 0 -4.234375 0 -4.953125 C 0 -5.679688 0.191406 -6.34375 0.578125 -6.9375 C 0.960938 -7.539062 1.472656 -8.019531 2.109375 -8.375 C 2.753906 -8.738281 3.46875 -8.921875 4.25 -8.921875 C 5.007812 -8.921875 5.703125 -8.773438 6.328125 -8.484375 C 6.960938 -8.191406 7.414062 -7.78125 7.6875 -7.25 C 7.851562 -6.914062 7.875 -6.5625 7.75 -6.1875 C 7.632812 -5.820312 7.414062 -5.476562 7.09375 -5.15625 C 6.769531 -4.832031 6.394531 -4.570312 5.96875 -4.375 C 5.550781 -4.175781 5.128906 -4.078125 4.703125 -4.078125 C 4.503906 -4.078125 4.304688 -4.09375 4.109375 -4.125 C 3.921875 -4.15625 3.753906 -4.203125 3.609375 -4.265625 C 3.835938 -3.765625 4.191406 -3.445312 4.671875 -3.3125 C 5.148438 -3.175781 5.671875 -3.21875 6.234375 -3.4375 C 6.796875 -3.65625 7.316406 -4.035156 7.796875 -4.578125 Z M 4.25 -8.03125 C 4.050781 -8.03125 3.882812 -7.890625 3.75 -7.609375 C 3.625 -7.328125 3.53125 -6.988281 3.46875 -6.59375 C 3.40625 -6.207031 3.375 -5.847656 3.375 -5.515625 C 3.375 -5.285156 3.394531 -5.066406 3.4375 -4.859375 C 3.457031 -4.890625 3.503906 -4.921875 3.578125 -4.953125 C 3.929688 -5.160156 4.1875 -5.4375 4.34375 -5.78125 C 4.5 -6.125 4.59375 -6.46875 4.625 -6.8125 C 4.65625 -7.15625 4.632812 -7.441406 4.5625 -7.671875 C 4.488281 -7.910156 4.382812 -8.03125 4.25 -8.03125 Z M 4.25 -8.03125 "/></g></g></g><g fill="#000000" fill-opacity="1"><g transform="translate(62.632747, 68.330242)"><g><path d="M 6.546875 -7.6875 C 6.671875 -7.6875 6.773438 -7.640625 6.859375 -7.546875 C 6.953125 -7.460938 7 -7.359375 7 -7.234375 L 7 -6.484375 L 4.859375 -6.484375 C 4.847656 -5.890625 4.851562 -5.316406 4.875 -4.765625 C 4.894531 -4.222656 4.953125 -3.753906 5.046875 -3.359375 C 5.148438 -2.960938 5.304688 -2.695312 5.515625 -2.5625 C 5.671875 -2.46875 5.820312 -2.4375 5.96875 -2.46875 C 6.125 -2.5 6.234375 -2.457031 6.296875 -2.34375 C 6.398438 -2.132812 6.328125 -1.921875 6.078125 -1.703125 C 5.828125 -1.492188 5.46875 -1.320312 5 -1.1875 C 4.539062 -1.0625 4.03125 -1 3.46875 -1 C 2.75 -1 2.148438 -1.164062 1.671875 -1.5 C 1.191406 -1.832031 0.953125 -2.351562 0.953125 -3.0625 L 0.953125 -6.484375 L 0.4375 -6.484375 C 0.332031 -6.484375 0.234375 -6.523438 0.140625 -6.609375 C 0.046875 -6.703125 0 -6.800781 0 -6.90625 L 0 -7.234375 C 0 -7.359375 0.046875 -7.453125 0.140625 -7.515625 C 0.234375 -7.585938 0.332031 -7.644531 0.4375 -7.6875 C 0.769531 -7.8125 1.109375 -8.0625 1.453125 -8.4375 C 1.804688 -8.820312 2.160156 -9.234375 2.515625 -9.671875 C 2.878906 -10.109375 3.234375 -10.488281 3.578125 -10.8125 C 3.929688 -11.132812 4.265625 -11.296875 4.578125 -11.296875 C 4.734375 -11.296875 4.898438 -11.253906 5.078125 -11.171875 C 5.253906 -11.097656 5.3125 -10.828125 5.25 -10.359375 C 5.25 -10.335938 5.210938 -10.066406 5.140625 -9.546875 C 5.078125 -9.035156 5.015625 -8.414062 4.953125 -7.6875 Z M 6.546875 -7.6875 "/></g></g></g><g fill="#000000" fill-opacity="1"><g transform="translate(69.863475, 68.330242)"><g><path d="M 4.46875 -8.921875 C 5.382812 -8.921875 6.109375 -8.796875 6.640625 -8.546875 C 7.179688 -8.304688 7.585938 -7.976562 7.859375 -7.5625 C 8.128906 -7.15625 8.316406 -6.710938 8.421875 -6.234375 C 8.523438 -5.753906 8.597656 -5.269531 8.640625 -4.78125 C 8.691406 -4.300781 8.765625 -3.851562 8.859375 -3.4375 C 8.960938 -3.03125 9.144531 -2.707031 9.40625 -2.46875 C 9.519531 -2.34375 9.648438 -2.238281 9.796875 -2.15625 C 9.941406 -2.082031 10 -1.960938 9.96875 -1.796875 C 9.9375 -1.585938 9.753906 -1.398438 9.421875 -1.234375 C 9.085938 -1.078125 8.703125 -1 8.265625 -1 C 7.867188 -1 7.5 -1.070312 7.15625 -1.21875 C 6.820312 -1.375 6.519531 -1.523438 6.25 -1.671875 C 5.988281 -1.816406 5.742188 -1.890625 5.515625 -1.890625 C 5.304688 -1.890625 5.085938 -1.816406 4.859375 -1.671875 C 4.628906 -1.523438 4.347656 -1.375 4.015625 -1.21875 C 3.691406 -1.070312 3.28125 -1 2.78125 -1 C 2.144531 -1 1.59375 -1.125 1.125 -1.375 C 0.664062 -1.625 0.335938 -1.957031 0.140625 -2.375 C -0.046875 -2.800781 -0.046875 -3.265625 0.140625 -3.765625 C 0.304688 -4.222656 0.601562 -4.550781 1.03125 -4.75 C 1.46875 -4.945312 1.957031 -5.09375 2.5 -5.1875 C 3.050781 -5.289062 3.570312 -5.414062 4.0625 -5.5625 C 4.582031 -5.726562 4.914062 -5.976562 5.0625 -6.3125 C 5.21875 -6.65625 5.25 -6.992188 5.15625 -7.328125 C 5.0625 -7.660156 4.898438 -7.878906 4.671875 -7.984375 C 4.441406 -8.085938 4.273438 -8.046875 4.171875 -7.859375 C 4.078125 -7.679688 4.007812 -7.457031 3.96875 -7.1875 C 3.925781 -6.914062 3.863281 -6.6875 3.78125 -6.5 C 3.675781 -6.207031 3.46875 -6.003906 3.15625 -5.890625 C 2.84375 -5.773438 2.507812 -5.738281 2.15625 -5.78125 C 1.800781 -5.832031 1.492188 -5.945312 1.234375 -6.125 C 0.972656 -6.3125 0.832031 -6.554688 0.8125 -6.859375 C 0.800781 -7.171875 0.988281 -7.523438 1.375 -7.921875 C 1.65625 -8.203125 2.054688 -8.4375 2.578125 -8.625 C 3.097656 -8.820312 3.726562 -8.921875 4.46875 -8.921875 Z M 3.421875 -3.359375 C 3.460938 -3.035156 3.632812 -2.820312 3.9375 -2.71875 C 4.25 -2.613281 4.539062 -2.582031 4.8125 -2.625 C 4.9375 -2.65625 5.03125 -2.71875 5.09375 -2.8125 C 5.164062 -2.914062 5.207031 -3 5.21875 -3.0625 C 5.300781 -3.46875 5.335938 -3.828125 5.328125 -4.140625 C 5.316406 -4.460938 5.289062 -4.722656 5.25 -4.921875 C 5.226562 -5.035156 5.164062 -5.09375 5.0625 -5.09375 C 4.96875 -5.101562 4.847656 -5.03125 4.703125 -4.875 C 4.535156 -4.707031 4.34375 -4.554688 4.125 -4.421875 C 3.914062 -4.285156 3.738281 -4.132812 3.59375 -3.96875 C 3.445312 -3.800781 3.390625 -3.597656 3.421875 -3.359375 Z M 3.421875 -3.359375 "/></g></g></g><g fill="#000000" fill-opacity="1"><g transform="translate(79.67173, 68.330242)"><g><path d="M 6.6875 -8.921875 C 7.28125 -8.921875 7.773438 -8.78125 8.171875 -8.5 C 8.566406 -8.226562 8.882812 -7.875 9.125 -7.4375 C 9.363281 -7 9.554688 -6.523438 9.703125 -6.015625 C 9.847656 -5.503906 9.96875 -5.003906 10.0625 -4.515625 C 10.164062 -4.023438 10.265625 -3.59375 10.359375 -3.21875 C 10.460938 -2.851562 10.597656 -2.59375 10.765625 -2.4375 C 10.890625 -2.332031 11.019531 -2.238281 11.15625 -2.15625 C 11.289062 -2.082031 11.34375 -1.960938 11.3125 -1.796875 C 11.28125 -1.566406 11.148438 -1.394531 10.921875 -1.28125 C 10.691406 -1.175781 10.414062 -1.101562 10.09375 -1.0625 C 9.78125 -1.019531 9.472656 -1 9.171875 -1 C 8.878906 -1 8.53125 -1.054688 8.125 -1.171875 C 7.726562 -1.285156 7.378906 -1.5 7.078125 -1.8125 C 6.785156 -2.132812 6.640625 -2.609375 6.640625 -3.234375 L 6.640625 -6.390625 C 6.640625 -6.953125 6.554688 -7.320312 6.390625 -7.5 C 6.222656 -7.6875 6.019531 -7.71875 5.78125 -7.59375 C 5.539062 -7.476562 5.3125 -7.25 5.09375 -6.90625 C 4.875 -6.5625 4.695312 -6.140625 4.5625 -5.640625 C 4.4375 -5.148438 4.40625 -4.625 4.46875 -4.0625 C 4.5 -3.644531 4.554688 -3.289062 4.640625 -3 C 4.722656 -2.707031 4.828125 -2.5 4.953125 -2.375 C 5.054688 -2.269531 5.160156 -2.179688 5.265625 -2.109375 C 5.367188 -2.035156 5.410156 -1.929688 5.390625 -1.796875 C 5.359375 -1.566406 5.175781 -1.394531 4.84375 -1.28125 C 4.519531 -1.175781 4.148438 -1.101562 3.734375 -1.0625 C 3.316406 -1.019531 2.953125 -1 2.640625 -1 C 2.359375 -1 2.007812 -1.019531 1.59375 -1.0625 C 1.1875 -1.101562 0.828125 -1.175781 0.515625 -1.28125 C 0.203125 -1.394531 0.03125 -1.566406 0 -1.796875 C -0.0078125 -1.953125 0.0234375 -2.066406 0.109375 -2.140625 C 0.203125 -2.222656 0.300781 -2.316406 0.40625 -2.421875 C 0.570312 -2.566406 0.6875 -2.84375 0.75 -3.25 C 0.820312 -3.65625 0.863281 -4.109375 0.875 -4.609375 C 0.894531 -5.109375 0.90625 -5.570312 0.90625 -6 C 0.90625 -6.75 0.894531 -7.40625 0.875 -7.96875 C 0.863281 -8.53125 0.738281 -8.960938 0.5 -9.265625 C 0.394531 -9.429688 0.28125 -9.566406 0.15625 -9.671875 C 0.0390625 -9.773438 -0.0078125 -9.921875 0 -10.109375 C 0.03125 -10.335938 0.160156 -10.539062 0.390625 -10.71875 C 0.628906 -10.90625 0.90625 -11.070312 1.21875 -11.21875 C 1.53125 -11.375 1.816406 -11.519531 2.078125 -11.65625 C 2.273438 -11.757812 2.535156 -11.882812 2.859375 -12.03125 C 3.191406 -12.1875 3.507812 -12.304688 3.8125 -12.390625 C 4.125 -12.484375 4.375 -12.484375 4.5625 -12.390625 C 4.75 -12.296875 4.796875 -12.066406 4.703125 -11.703125 C 4.679688 -11.597656 4.648438 -11.304688 4.609375 -10.828125 C 4.566406 -10.347656 4.519531 -9.765625 4.46875 -9.078125 C 4.425781 -8.390625 4.394531 -7.679688 4.375 -6.953125 C 4.601562 -7.628906 4.953125 -8.125 5.421875 -8.4375 C 5.898438 -8.757812 6.320312 -8.921875 6.6875 -8.921875 Z M 6.6875 -8.921875 "/></g></g></g><g fill="#000000" fill-opacity="1"><g transform="translate(91.145099, 68.330242)"><g><path d="M 10.328125 -2.375 C 10.421875 -2.269531 10.523438 -2.179688 10.640625 -2.109375 C 10.753906 -2.035156 10.796875 -1.929688 10.765625 -1.796875 C 10.722656 -1.460938 10.507812 -1.242188 10.125 -1.140625 C 9.75 -1.046875 9.335938 -1 8.890625 -1 C 8.554688 -1 8.25 -1.050781 7.96875 -1.15625 C 7.6875 -1.269531 7.4375 -1.375 7.21875 -1.46875 C 7.007812 -1.570312 6.820312 -1.625 6.65625 -1.625 C 6.425781 -1.625 6.203125 -1.546875 5.984375 -1.390625 C 5.765625 -1.234375 5.457031 -1.117188 5.0625 -1.046875 C 4.988281 -1.015625 4.828125 -1 4.578125 -1 L 4.5 -1 C 4.039062 -1 3.546875 -1.078125 3.015625 -1.234375 C 2.484375 -1.398438 2.019531 -1.65625 1.625 -2 C 1.226562 -2.351562 1.003906 -2.8125 0.953125 -3.375 L 0.953125 -3.484375 C 0.953125 -3.828125 0.9375 -4.210938 0.90625 -4.640625 C 0.875 -5.078125 0.738281 -5.445312 0.5 -5.75 C 0.394531 -5.90625 0.28125 -6.035156 0.15625 -6.140625 C 0.0390625 -6.242188 -0.0078125 -6.375 0 -6.53125 L 0 -6.609375 C 0.0390625 -6.835938 0.179688 -7.039062 0.421875 -7.21875 C 0.660156 -7.394531 0.929688 -7.554688 1.234375 -7.703125 C 1.535156 -7.859375 1.816406 -8.003906 2.078125 -8.140625 C 2.273438 -8.234375 2.53125 -8.351562 2.84375 -8.5 C 3.164062 -8.65625 3.484375 -8.773438 3.796875 -8.859375 C 4.109375 -8.941406 4.351562 -8.941406 4.53125 -8.859375 C 4.71875 -8.773438 4.773438 -8.550781 4.703125 -8.1875 C 4.671875 -8.050781 4.625 -7.800781 4.5625 -7.4375 C 4.5 -7.070312 4.4375 -6.640625 4.375 -6.140625 C 4.3125 -5.648438 4.28125 -5.140625 4.28125 -4.609375 C 4.28125 -4.085938 4.328125 -3.597656 4.421875 -3.140625 C 4.523438 -2.691406 4.703125 -2.328125 4.953125 -2.046875 C 5.097656 -1.941406 5.265625 -1.890625 5.453125 -1.890625 C 5.710938 -1.890625 5.957031 -2.082031 6.1875 -2.46875 C 6.257812 -2.601562 6.3125 -2.804688 6.34375 -3.078125 C 6.382812 -3.347656 6.40625 -3.644531 6.40625 -3.96875 L 6.40625 -4.125 C 6.394531 -4.539062 6.328125 -4.882812 6.203125 -5.15625 C 6.078125 -5.425781 5.972656 -5.625 5.890625 -5.75 C 5.773438 -5.90625 5.65625 -6.035156 5.53125 -6.140625 C 5.414062 -6.253906 5.367188 -6.394531 5.390625 -6.5625 C 5.410156 -6.789062 5.539062 -7 5.78125 -7.1875 C 6.019531 -7.382812 6.296875 -7.554688 6.609375 -7.703125 C 6.921875 -7.859375 7.203125 -8.003906 7.453125 -8.140625 C 7.648438 -8.234375 7.910156 -8.351562 8.234375 -8.5 C 8.554688 -8.65625 8.875 -8.773438 9.1875 -8.859375 C 9.5 -8.941406 9.742188 -8.941406 9.921875 -8.859375 C 10.109375 -8.773438 10.160156 -8.550781 10.078125 -8.1875 C 10.046875 -8.050781 10.003906 -7.800781 9.953125 -7.4375 C 9.898438 -7.070312 9.847656 -6.648438 9.796875 -6.171875 C 9.753906 -5.691406 9.738281 -5.203125 9.75 -4.703125 C 9.757812 -4.203125 9.804688 -3.738281 9.890625 -3.3125 C 9.972656 -2.894531 10.117188 -2.582031 10.328125 -2.375 Z M 10.328125 -2.375 "/></g></g></g><g fill="#000000" fill-opacity="1"><g transform="translate(102.048221, 68.330242)"><g><path d="M 4.46875 -8.921875 C 5.382812 -8.921875 6.109375 -8.796875 6.640625 -8.546875 C 7.179688 -8.304688 7.585938 -7.976562 7.859375 -7.5625 C 8.128906 -7.15625 8.316406 -6.710938 8.421875 -6.234375 C 8.523438 -5.753906 8.597656 -5.269531 8.640625 -4.78125 C 8.691406 -4.300781 8.765625 -3.851562 8.859375 -3.4375 C 8.960938 -3.03125 9.144531 -2.707031 9.40625 -2.46875 C 9.519531 -2.34375 9.648438 -2.238281 9.796875 -2.15625 C 9.941406 -2.082031 10 -1.960938 9.96875 -1.796875 C 9.9375 -1.585938 9.753906 -1.398438 9.421875 -1.234375 C 9.085938 -1.078125 8.703125 -1 8.265625 -1 C 7.867188 -1 7.5 -1.070312 7.15625 -1.21875 C 6.820312 -1.375 6.519531 -1.523438 6.25 -1.671875 C 5.988281 -1.816406 5.742188 -1.890625 5.515625 -1.890625 C 5.304688 -1.890625 5.085938 -1.816406 4.859375 -1.671875 C 4.628906 -1.523438 4.347656 -1.375 4.015625 -1.21875 C 3.691406 -1.070312 3.28125 -1 2.78125 -1 C 2.144531 -1 1.59375 -1.125 1.125 -1.375 C 0.664062 -1.625 0.335938 -1.957031 0.140625 -2.375 C -0.046875 -2.800781 -0.046875 -3.265625 0.140625 -3.765625 C 0.304688 -4.222656 0.601562 -4.550781 1.03125 -4.75 C 1.46875 -4.945312 1.957031 -5.09375 2.5 -5.1875 C 3.050781 -5.289062 3.570312 -5.414062 4.0625 -5.5625 C 4.582031 -5.726562 4.914062 -5.976562 5.0625 -6.3125 C 5.21875 -6.65625 5.25 -6.992188 5.15625 -7.328125 C 5.0625 -7.660156 4.898438 -7.878906 4.671875 -7.984375 C 4.441406 -8.085938 4.273438 -8.046875 4.171875 -7.859375 C 4.078125 -7.679688 4.007812 -7.457031 3.96875 -7.1875 C 3.925781 -6.914062 3.863281 -6.6875 3.78125 -6.5 C 3.675781 -6.207031 3.46875 -6.003906 3.15625 -5.890625 C 2.84375 -5.773438 2.507812 -5.738281 2.15625 -5.78125 C 1.800781 -5.832031 1.492188 -5.945312 1.234375 -6.125 C 0.972656 -6.3125 0.832031 -6.554688 0.8125 -6.859375 C 0.800781 -7.171875 0.988281 -7.523438 1.375 -7.921875 C 1.65625 -8.203125 2.054688 -8.4375 2.578125 -8.625 C 3.097656 -8.820312 3.726562 -8.921875 4.46875 -8.921875 Z M 3.421875 -3.359375 C 3.460938 -3.035156 3.632812 -2.820312 3.9375 -2.71875 C 4.25 -2.613281 4.539062 -2.582031 4.8125 -2.625 C 4.9375 -2.65625 5.03125 -2.71875 5.09375 -2.8125 C 5.164062 -2.914062 5.207031 -3 5.21875 -3.0625 C 5.300781 -3.46875 5.335938 -3.828125 5.328125 -4.140625 C 5.316406 -4.460938 5.289062 -4.722656 5.25 -4.921875 C 5.226562 -5.035156 5.164062 -5.09375 5.0625 -5.09375 C 4.96875 -5.101562 4.847656 -5.03125 4.703125 -4.875 C 4.535156 -4.707031 4.34375 -4.554688 4.125 -4.421875 C 3.914062 -4.285156 3.738281 -4.132812 3.59375 -3.96875 C 3.445312 -3.800781 3.390625 -3.597656 3.421875 -3.359375 Z M 3.421875 -3.359375 "/></g></g></g><g fill="#000000" fill-opacity="1"><g transform="translate(111.856476, 68.330242)"><g><path d="M 6.640625 -8.921875 C 7.328125 -8.921875 7.875 -8.734375 8.28125 -8.359375 C 8.6875 -7.984375 9.007812 -7.507812 9.25 -6.9375 C 9.488281 -6.375 9.675781 -5.78125 9.8125 -5.15625 C 9.957031 -4.53125 10.097656 -3.96875 10.234375 -3.46875 C 10.378906 -2.96875 10.554688 -2.601562 10.765625 -2.375 C 10.867188 -2.269531 10.972656 -2.179688 11.078125 -2.109375 C 11.191406 -2.035156 11.234375 -1.929688 11.203125 -1.796875 C 11.171875 -1.566406 11.023438 -1.394531 10.765625 -1.28125 C 10.503906 -1.175781 10.203125 -1.101562 9.859375 -1.0625 C 9.523438 -1.019531 9.203125 -1 8.890625 -1 C 8.609375 -1 8.269531 -1.054688 7.875 -1.171875 C 7.488281 -1.285156 7.148438 -1.5 6.859375 -1.8125 C 6.578125 -2.132812 6.4375 -2.609375 6.4375 -3.234375 L 6.4375 -6.390625 C 6.4375 -6.953125 6.363281 -7.316406 6.21875 -7.484375 C 6.082031 -7.660156 5.910156 -7.695312 5.703125 -7.59375 C 5.503906 -7.488281 5.300781 -7.285156 5.09375 -6.984375 C 4.894531 -6.679688 4.722656 -6.332031 4.578125 -5.9375 C 4.441406 -5.539062 4.375 -5.148438 4.375 -4.765625 C 4.375 -4.265625 4.414062 -3.796875 4.5 -3.359375 C 4.582031 -2.929688 4.734375 -2.601562 4.953125 -2.375 C 5.054688 -2.269531 5.160156 -2.179688 5.265625 -2.109375 C 5.367188 -2.035156 5.410156 -1.929688 5.390625 -1.796875 C 5.359375 -1.566406 5.175781 -1.394531 4.84375 -1.28125 C 4.519531 -1.175781 4.148438 -1.101562 3.734375 -1.0625 C 3.316406 -1.019531 2.953125 -1 2.640625 -1 C 2.359375 -1 2.007812 -1.019531 1.59375 -1.0625 C 1.1875 -1.101562 0.828125 -1.175781 0.515625 -1.28125 C 0.203125 -1.394531 0.03125 -1.566406 0 -1.796875 C -0.0078125 -1.953125 0.0234375 -2.066406 0.109375 -2.140625 C 0.203125 -2.222656 0.300781 -2.316406 0.40625 -2.421875 C 0.53125 -2.523438 0.625 -2.722656 0.6875 -3.015625 C 0.757812 -3.316406 0.800781 -3.648438 0.8125 -4.015625 C 0.832031 -4.378906 0.816406 -4.71875 0.765625 -5.03125 C 0.710938 -5.351562 0.625 -5.59375 0.5 -5.75 C 0.394531 -5.90625 0.28125 -6.035156 0.15625 -6.140625 C 0.0390625 -6.253906 -0.0078125 -6.394531 0 -6.5625 C 0.03125 -6.789062 0.160156 -7 0.390625 -7.1875 C 0.628906 -7.382812 0.90625 -7.554688 1.21875 -7.703125 C 1.53125 -7.859375 1.816406 -8.003906 2.078125 -8.140625 C 2.273438 -8.234375 2.535156 -8.351562 2.859375 -8.5 C 3.191406 -8.65625 3.507812 -8.773438 3.8125 -8.859375 C 4.125 -8.941406 4.375 -8.941406 4.5625 -8.859375 C 4.75 -8.773438 4.796875 -8.550781 4.703125 -8.1875 L 4.578125 -7.5 C 4.859375 -7.988281 5.195312 -8.347656 5.59375 -8.578125 C 5.988281 -8.804688 6.335938 -8.921875 6.640625 -8.921875 Z M 6.640625 -8.921875 "/></g></g></g><g fill="#000000" fill-opacity="1"><g transform="translate(123.261423, 68.330242)"><g/></g></g><g fill="#000000" fill-opacity="1"><g transform="translate(126.888193, 68.330242)"><g><path d="M 5.546875 -11.40625 C 5.546875 -11.21875 5.492188 -11.019531 5.390625 -10.8125 C 5.296875 -10.601562 5.195312 -10.425781 5.09375 -10.28125 C 4.96875 -10.101562 4.851562 -9.78125 4.75 -9.3125 C 4.65625 -8.851562 4.582031 -8.320312 4.53125 -7.71875 C 4.488281 -7.125 4.472656 -6.519531 4.484375 -5.90625 C 4.492188 -5.300781 4.539062 -4.757812 4.625 -4.28125 C 4.707031 -3.8125 4.820312 -3.476562 4.96875 -3.28125 C 5.101562 -3.132812 5.234375 -2.945312 5.359375 -2.71875 C 5.484375 -2.488281 5.546875 -2.265625 5.546875 -2.046875 C 5.546875 -1.765625 5.421875 -1.546875 5.171875 -1.390625 C 4.921875 -1.234375 4.59375 -1.128906 4.1875 -1.078125 C 3.78125 -1.023438 3.34375 -1 2.875 -1 L 2.671875 -1 C 2.210938 -1 1.773438 -1.023438 1.359375 -1.078125 C 0.953125 -1.128906 0.625 -1.234375 0.375 -1.390625 C 0.125 -1.546875 0 -1.765625 0 -2.046875 C 0 -2.265625 0.0546875 -2.488281 0.171875 -2.71875 C 0.296875 -2.945312 0.421875 -3.132812 0.546875 -3.28125 C 0.710938 -3.476562 0.832031 -3.8125 0.90625 -4.28125 C 0.988281 -4.757812 1.035156 -5.300781 1.046875 -5.90625 C 1.066406 -6.519531 1.050781 -7.125 1 -7.71875 C 0.957031 -8.320312 0.882812 -8.851562 0.78125 -9.3125 C 0.6875 -9.78125 0.578125 -10.101562 0.453125 -10.28125 C 0.347656 -10.425781 0.242188 -10.601562 0.140625 -10.8125 C 0.046875 -11.019531 0 -11.21875 0 -11.40625 C 0 -11.695312 0.125 -11.914062 0.375 -12.0625 C 0.625 -12.21875 0.953125 -12.320312 1.359375 -12.375 C 1.773438 -12.425781 2.210938 -12.453125 2.671875 -12.453125 L 2.875 -12.453125 C 3.34375 -12.453125 3.78125 -12.425781 4.1875 -12.375 C 4.59375 -12.320312 4.921875 -12.21875 5.171875 -12.0625 C 5.421875 -11.914062 5.546875 -11.695312 5.546875 -11.40625 Z M 5.546875 -11.40625 "/></g></g></g><g fill="#000000" fill-opacity="1"><g transform="translate(132.63629, 68.330242)"><g><path d="M 6.640625 -8.921875 C 7.328125 -8.921875 7.875 -8.734375 8.28125 -8.359375 C 8.6875 -7.984375 9.007812 -7.507812 9.25 -6.9375 C 9.488281 -6.375 9.675781 -5.78125 9.8125 -5.15625 C 9.957031 -4.53125 10.097656 -3.96875 10.234375 -3.46875 C 10.378906 -2.96875 10.554688 -2.601562 10.765625 -2.375 C 10.867188 -2.269531 10.972656 -2.179688 11.078125 -2.109375 C 11.191406 -2.035156 11.234375 -1.929688 11.203125 -1.796875 C 11.171875 -1.566406 11.023438 -1.394531 10.765625 -1.28125 C 10.503906 -1.175781 10.203125 -1.101562 9.859375 -1.0625 C 9.523438 -1.019531 9.203125 -1 8.890625 -1 C 8.609375 -1 8.269531 -1.054688 7.875 -1.171875 C 7.488281 -1.285156 7.148438 -1.5 6.859375 -1.8125 C 6.578125 -2.132812 6.4375 -2.609375 6.4375 -3.234375 L 6.4375 -6.390625 C 6.4375 -6.953125 6.363281 -7.316406 6.21875 -7.484375 C 6.082031 -7.660156 5.910156 -7.695312 5.703125 -7.59375 C 5.503906 -7.488281 5.300781 -7.285156 5.09375 -6.984375 C 4.894531 -6.679688 4.722656 -6.332031 4.578125 -5.9375 C 4.441406 -5.539062 4.375 -5.148438 4.375 -4.765625 C 4.375 -4.265625 4.414062 -3.796875 4.5 -3.359375 C 4.582031 -2.929688 4.734375 -2.601562 4.953125 -2.375 C 5.054688 -2.269531 5.160156 -2.179688 5.265625 -2.109375 C 5.367188 -2.035156 5.410156 -1.929688 5.390625 -1.796875 C 5.359375 -1.566406 5.175781 -1.394531 4.84375 -1.28125 C 4.519531 -1.175781 4.148438 -1.101562 3.734375 -1.0625 C 3.316406 -1.019531 2.953125 -1 2.640625 -1 C 2.359375 -1 2.007812 -1.019531 1.59375 -1.0625 C 1.1875 -1.101562 0.828125 -1.175781 0.515625 -1.28125 C 0.203125 -1.394531 0.03125 -1.566406 0 -1.796875 C -0.0078125 -1.953125 0.0234375 -2.066406 0.109375 -2.140625 C 0.203125 -2.222656 0.300781 -2.316406 0.40625 -2.421875 C 0.53125 -2.523438 0.625 -2.722656 0.6875 -3.015625 C 0.757812 -3.316406 0.800781 -3.648438 0.8125 -4.015625 C 0.832031 -4.378906 0.816406 -4.71875 0.765625 -5.03125 C 0.710938 -5.351562 0.625 -5.59375 0.5 -5.75 C 0.394531 -5.90625 0.28125 -6.035156 0.15625 -6.140625 C 0.0390625 -6.253906 -0.0078125 -6.394531 0 -6.5625 C 0.03125 -6.789062 0.160156 -7 0.390625 -7.1875 C 0.628906 -7.382812 0.90625 -7.554688 1.21875 -7.703125 C 1.53125 -7.859375 1.816406 -8.003906 2.078125 -8.140625 C 2.273438 -8.234375 2.535156 -8.351562 2.859375 -8.5 C 3.191406 -8.65625 3.507812 -8.773438 3.8125 -8.859375 C 4.125 -8.941406 4.375 -8.941406 4.5625 -8.859375 C 4.75 -8.773438 4.796875 -8.550781 4.703125 -8.1875 L 4.578125 -7.5 C 4.859375 -7.988281 5.195312 -8.347656 5.59375 -8.578125 C 5.988281 -8.804688 6.335938 -8.921875 6.640625 -8.921875 Z M 6.640625 -8.921875 "/></g></g></g><g fill="#000000" fill-opacity="1"><g transform="translate(144.041237, 68.330242)"><g><path d="M 9.515625 -2.421875 C 9.617188 -2.316406 9.71875 -2.222656 9.8125 -2.140625 C 9.90625 -2.066406 9.941406 -1.953125 9.921875 -1.796875 C 9.878906 -1.460938 9.691406 -1.242188 9.359375 -1.140625 C 9.035156 -1.046875 8.695312 -1 8.34375 -1 C 8.238281 -1 8.023438 -1.019531 7.703125 -1.0625 C 7.390625 -1.113281 7.0625 -1.15625 6.71875 -1.1875 C 6.375 -1.226562 6.101562 -1.25 5.90625 -1.25 C 5.726562 -1.25 5.539062 -1.226562 5.34375 -1.1875 C 5.144531 -1.15625 4.898438 -1.113281 4.609375 -1.0625 C 4.316406 -1.019531 3.921875 -1 3.421875 -1 C 2.859375 -1 2.3125 -1.175781 1.78125 -1.53125 C 1.257812 -1.894531 0.832031 -2.375 0.5 -2.96875 C 0.164062 -3.570312 0 -4.234375 0 -4.953125 C 0 -5.679688 0.148438 -6.34375 0.453125 -6.9375 C 0.753906 -7.539062 1.164062 -8.019531 1.6875 -8.375 C 2.21875 -8.738281 2.796875 -8.921875 3.421875 -8.921875 C 3.816406 -8.921875 4.1875 -8.847656 4.53125 -8.703125 C 4.882812 -8.554688 5.207031 -8.351562 5.5 -8.09375 C 5.476562 -8.34375 5.445312 -8.554688 5.40625 -8.734375 C 5.363281 -8.921875 5.273438 -9.097656 5.140625 -9.265625 C 5.023438 -9.429688 4.90625 -9.566406 4.78125 -9.671875 C 4.664062 -9.773438 4.613281 -9.921875 4.625 -10.109375 C 4.65625 -10.335938 4.796875 -10.539062 5.046875 -10.71875 C 5.296875 -10.90625 5.582031 -11.070312 5.90625 -11.21875 C 6.238281 -11.375 6.535156 -11.519531 6.796875 -11.65625 C 6.992188 -11.757812 7.25 -11.882812 7.5625 -12.03125 C 7.875 -12.1875 8.175781 -12.304688 8.46875 -12.390625 C 8.769531 -12.484375 9.003906 -12.484375 9.171875 -12.390625 C 9.347656 -12.296875 9.398438 -12.066406 9.328125 -11.703125 C 9.316406 -11.566406 9.28125 -11.15625 9.21875 -10.46875 C 9.164062 -9.78125 9.113281 -8.988281 9.0625 -8.09375 C 9.039062 -7.8125 9.023438 -7.488281 9.015625 -7.125 C 9.015625 -6.769531 9.015625 -6.394531 9.015625 -6 C 9.015625 -5.570312 9.019531 -5.109375 9.03125 -4.609375 C 9.050781 -4.109375 9.097656 -3.65625 9.171875 -3.25 C 9.242188 -2.84375 9.359375 -2.566406 9.515625 -2.421875 Z M 4.625 -2.078125 C 4.882812 -1.953125 5.101562 -2.101562 5.28125 -2.53125 C 5.457031 -2.957031 5.546875 -3.796875 5.546875 -5.046875 C 5.546875 -5.816406 5.515625 -6.382812 5.453125 -6.75 C 5.390625 -7.113281 5.253906 -7.390625 5.046875 -7.578125 C 4.765625 -7.835938 4.503906 -7.910156 4.265625 -7.796875 C 4.023438 -7.679688 3.820312 -7.441406 3.65625 -7.078125 C 3.488281 -6.722656 3.375 -6.300781 3.3125 -5.8125 C 3.25 -5.332031 3.242188 -4.835938 3.296875 -4.328125 C 3.347656 -3.828125 3.484375 -3.375 3.703125 -2.96875 C 3.921875 -2.570312 4.226562 -2.273438 4.625 -2.078125 Z M 4.625 -2.078125 "/></g></g></g><g fill="#000000" fill-opacity="1"><g transform="translate(154.077585, 68.330242)"><g><path d="M 4.25 -8.921875 C 5.03125 -8.921875 5.738281 -8.738281 6.375 -8.375 C 7.019531 -8.019531 7.535156 -7.539062 7.921875 -6.9375 C 8.316406 -6.34375 8.515625 -5.679688 8.515625 -4.953125 C 8.515625 -4.222656 8.316406 -3.554688 7.921875 -2.953125 C 7.535156 -2.347656 7.019531 -1.867188 6.375 -1.515625 C 5.738281 -1.171875 5.03125 -1 4.25 -1 C 3.46875 -1 2.753906 -1.171875 2.109375 -1.515625 C 1.460938 -1.867188 0.945312 -2.347656 0.5625 -2.953125 C 0.1875 -3.554688 0 -4.222656 0 -4.953125 C 0 -5.679688 0.1875 -6.34375 0.5625 -6.9375 C 0.945312 -7.539062 1.460938 -8.019531 2.109375 -8.375 C 2.753906 -8.738281 3.46875 -8.921875 4.25 -8.921875 Z M 4.25 -1.828125 C 4.5 -1.828125 4.71875 -2.128906 4.90625 -2.734375 C 5.101562 -3.347656 5.203125 -4.070312 5.203125 -4.90625 C 5.203125 -5.757812 5.101562 -6.484375 4.90625 -7.078125 C 4.71875 -7.671875 4.5 -7.96875 4.25 -7.96875 C 3.988281 -7.96875 3.765625 -7.671875 3.578125 -7.078125 C 3.398438 -6.484375 3.3125 -5.757812 3.3125 -4.90625 C 3.3125 -4.070312 3.398438 -3.347656 3.578125 -2.734375 C 3.765625 -2.128906 3.988281 -1.828125 4.25 -1.828125 Z M 4.25 -1.828125 "/></g></g></g><g fill="#000000" fill-opacity="1"><g transform="translate(162.790958, 68.330242)"><g><path d="M 6.640625 -8.921875 C 7.328125 -8.921875 7.875 -8.734375 8.28125 -8.359375 C 8.6875 -7.984375 9.007812 -7.507812 9.25 -6.9375 C 9.488281 -6.375 9.675781 -5.78125 9.8125 -5.15625 C 9.957031 -4.53125 10.097656 -3.96875 10.234375 -3.46875 C 10.378906 -2.96875 10.554688 -2.601562 10.765625 -2.375 C 10.867188 -2.269531 10.972656 -2.179688 11.078125 -2.109375 C 11.191406 -2.035156 11.234375 -1.929688 11.203125 -1.796875 C 11.171875 -1.566406 11.023438 -1.394531 10.765625 -1.28125 C 10.503906 -1.175781 10.203125 -1.101562 9.859375 -1.0625 C 9.523438 -1.019531 9.203125 -1 8.890625 -1 C 8.609375 -1 8.269531 -1.054688 7.875 -1.171875 C 7.488281 -1.285156 7.148438 -1.5 6.859375 -1.8125 C 6.578125 -2.132812 6.4375 -2.609375 6.4375 -3.234375 L 6.4375 -6.390625 C 6.4375 -6.953125 6.363281 -7.316406 6.21875 -7.484375 C 6.082031 -7.660156 5.910156 -7.695312 5.703125 -7.59375 C 5.503906 -7.488281 5.300781 -7.285156 5.09375 -6.984375 C 4.894531 -6.679688 4.722656 -6.332031 4.578125 -5.9375 C 4.441406 -5.539062 4.375 -5.148438 4.375 -4.765625 C 4.375 -4.265625 4.414062 -3.796875 4.5 -3.359375 C 4.582031 -2.929688 4.734375 -2.601562 4.953125 -2.375 C 5.054688 -2.269531 5.160156 -2.179688 5.265625 -2.109375 C 5.367188 -2.035156 5.410156 -1.929688 5.390625 -1.796875 C 5.359375 -1.566406 5.175781 -1.394531 4.84375 -1.28125 C 4.519531 -1.175781 4.148438 -1.101562 3.734375 -1.0625 C 3.316406 -1.019531 2.953125 -1 2.640625 -1 C 2.359375 -1 2.007812 -1.019531 1.59375 -1.0625 C 1.1875 -1.101562 0.828125 -1.175781 0.515625 -1.28125 C 0.203125 -1.394531 0.03125 -1.566406 0 -1.796875 C -0.0078125 -1.953125 0.0234375 -2.066406 0.109375 -2.140625 C 0.203125 -2.222656 0.300781 -2.316406 0.40625 -2.421875 C 0.53125 -2.523438 0.625 -2.722656 0.6875 -3.015625 C 0.757812 -3.316406 0.800781 -3.648438 0.8125 -4.015625 C 0.832031 -4.378906 0.816406 -4.71875 0.765625 -5.03125 C 0.710938 -5.351562 0.625 -5.59375 0.5 -5.75 C 0.394531 -5.90625 0.28125 -6.035156 0.15625 -6.140625 C 0.0390625 -6.253906 -0.0078125 -6.394531 0 -6.5625 C 0.03125 -6.789062 0.160156 -7 0.390625 -7.1875 C 0.628906 -7.382812 0.90625 -7.554688 1.21875 -7.703125 C 1.53125 -7.859375 1.816406 -8.003906 2.078125 -8.140625 C 2.273438 -8.234375 2.535156 -8.351562 2.859375 -8.5 C 3.191406 -8.65625 3.507812 -8.773438 3.8125 -8.859375 C 4.125 -8.941406 4.375 -8.941406 4.5625 -8.859375 C 4.75 -8.773438 4.796875 -8.550781 4.703125 -8.1875 L 4.578125 -7.5 C 4.859375 -7.988281 5.195312 -8.347656 5.59375 -8.578125 C 5.988281 -8.804688 6.335938 -8.921875 6.640625 -8.921875 Z M 6.640625 -8.921875 "/></g></g></g><g fill="#000000" fill-opacity="1"><g transform="translate(174.195904, 68.330242)"><g><path d="M 7.796875 -4.578125 C 7.960938 -4.773438 8.117188 -4.832031 8.265625 -4.75 C 8.410156 -4.664062 8.46875 -4.523438 8.4375 -4.328125 L 8.390625 -4.109375 C 8.253906 -3.515625 7.988281 -2.984375 7.59375 -2.515625 C 7.195312 -2.054688 6.707031 -1.6875 6.125 -1.40625 C 5.550781 -1.132812 4.925781 -1 4.25 -1 C 3.46875 -1 2.753906 -1.175781 2.109375 -1.53125 C 1.472656 -1.894531 0.960938 -2.375 0.578125 -2.96875 C 0.191406 -3.570312 0 -4.234375 0 -4.953125 C 0 -5.679688 0.191406 -6.34375 0.578125 -6.9375 C 0.960938 -7.539062 1.472656 -8.019531 2.109375 -8.375 C 2.753906 -8.738281 3.46875 -8.921875 4.25 -8.921875 C 5.007812 -8.921875 5.703125 -8.773438 6.328125 -8.484375 C 6.960938 -8.191406 7.414062 -7.78125 7.6875 -7.25 C 7.851562 -6.914062 7.875 -6.5625 7.75 -6.1875 C 7.632812 -5.820312 7.414062 -5.476562 7.09375 -5.15625 C 6.769531 -4.832031 6.394531 -4.570312 5.96875 -4.375 C 5.550781 -4.175781 5.128906 -4.078125 4.703125 -4.078125 C 4.503906 -4.078125 4.304688 -4.09375 4.109375 -4.125 C 3.921875 -4.15625 3.753906 -4.203125 3.609375 -4.265625 C 3.835938 -3.765625 4.191406 -3.445312 4.671875 -3.3125 C 5.148438 -3.175781 5.671875 -3.21875 6.234375 -3.4375 C 6.796875 -3.65625 7.316406 -4.035156 7.796875 -4.578125 Z M 4.25 -8.03125 C 4.050781 -8.03125 3.882812 -7.890625 3.75 -7.609375 C 3.625 -7.328125 3.53125 -6.988281 3.46875 -6.59375 C 3.40625 -6.207031 3.375 -5.847656 3.375 -5.515625 C 3.375 -5.285156 3.394531 -5.066406 3.4375 -4.859375 C 3.457031 -4.890625 3.503906 -4.921875 3.578125 -4.953125 C 3.929688 -5.160156 4.1875 -5.4375 4.34375 -5.78125 C 4.5 -6.125 4.59375 -6.46875 4.625 -6.8125 C 4.65625 -7.15625 4.632812 -7.441406 4.5625 -7.671875 C 4.488281 -7.910156 4.382812 -8.03125 4.25 -8.03125 Z M 4.25 -8.03125 "/></g></g></g><g fill="#000000" fill-opacity="1"><g transform="translate(182.840856, 68.330242)"><g><path d="M 8.078125 -7.421875 C 8.242188 -7.078125 8.234375 -6.800781 8.046875 -6.59375 C 7.867188 -6.382812 7.597656 -6.234375 7.234375 -6.140625 C 6.878906 -6.054688 6.507812 -6.046875 6.125 -6.109375 C 5.738281 -6.171875 5.421875 -6.304688 5.171875 -6.515625 C 4.921875 -6.722656 4.816406 -7.015625 4.859375 -7.390625 C 4.921875 -7.785156 4.851562 -8.046875 4.65625 -8.171875 C 4.46875 -8.304688 4.265625 -8.332031 4.046875 -8.25 C 3.828125 -8.175781 3.6875 -8.019531 3.625 -7.78125 C 3.53125 -7.414062 3.613281 -7.09375 3.875 -6.8125 C 4.132812 -6.53125 4.476562 -6.265625 4.90625 -6.015625 C 5.34375 -5.773438 5.789062 -5.53125 6.25 -5.28125 C 6.707031 -5.039062 7.109375 -4.773438 7.453125 -4.484375 C 7.804688 -4.203125 8.015625 -3.863281 8.078125 -3.46875 C 8.148438 -3.070312 8.007812 -2.679688 7.65625 -2.296875 C 7.3125 -1.921875 6.832031 -1.609375 6.21875 -1.359375 C 5.601562 -1.117188 4.921875 -1 4.171875 -1 L 4.125 -1 C 3.59375 -1 3.050781 -1.050781 2.5 -1.15625 C 1.945312 -1.269531 1.457031 -1.4375 1.03125 -1.65625 C 0.601562 -1.875 0.296875 -2.160156 0.109375 -2.515625 C -0.0546875 -2.847656 -0.0507812 -3.117188 0.125 -3.328125 C 0.3125 -3.546875 0.582031 -3.695312 0.9375 -3.78125 C 1.300781 -3.863281 1.675781 -3.875 2.0625 -3.8125 C 2.445312 -3.75 2.765625 -3.613281 3.015625 -3.40625 C 3.273438 -3.207031 3.378906 -2.914062 3.328125 -2.53125 C 3.285156 -2.132812 3.347656 -1.867188 3.515625 -1.734375 C 3.691406 -1.609375 3.890625 -1.585938 4.109375 -1.671875 C 4.335938 -1.753906 4.488281 -1.910156 4.5625 -2.140625 C 4.664062 -2.503906 4.59375 -2.816406 4.34375 -3.078125 C 4.09375 -3.335938 3.742188 -3.570312 3.296875 -3.78125 C 2.859375 -4 2.40625 -4.222656 1.9375 -4.453125 C 1.46875 -4.691406 1.054688 -4.960938 0.703125 -5.265625 C 0.359375 -5.566406 0.160156 -5.929688 0.109375 -6.359375 C 0.046875 -6.890625 0.1875 -7.34375 0.53125 -7.71875 C 0.875 -8.101562 1.351562 -8.398438 1.96875 -8.609375 C 2.582031 -8.816406 3.265625 -8.921875 4.015625 -8.921875 L 4.0625 -8.921875 C 4.59375 -8.921875 5.132812 -8.863281 5.6875 -8.75 C 6.25 -8.644531 6.742188 -8.484375 7.171875 -8.265625 C 7.609375 -8.046875 7.910156 -7.765625 8.078125 -7.421875 Z M 8.078125 -7.421875 "/></g></g></g><g fill="#000000" fill-opacity="1"><g transform="translate(191.303324, 68.330242)"><g><path d="M 2.375 -8.921875 C 1.90625 -8.921875 1.503906 -9.082031 1.171875 -9.40625 C 0.847656 -9.738281 0.6875 -10.140625 0.6875 -10.609375 C 0.6875 -11.078125 0.847656 -11.472656 1.171875 -11.796875 C 1.503906 -12.128906 1.90625 -12.296875 2.375 -12.296875 C 2.84375 -12.296875 3.238281 -12.128906 3.5625 -11.796875 C 3.894531 -11.472656 4.0625 -11.078125 4.0625 -10.609375 C 4.0625 -10.140625 3.894531 -9.738281 3.5625 -9.40625 C 3.238281 -9.082031 2.84375 -8.921875 2.375 -8.921875 Z M 4.703125 -8.1875 C 4.671875 -8.050781 4.628906 -7.800781 4.578125 -7.4375 C 4.523438 -7.070312 4.472656 -6.648438 4.421875 -6.171875 C 4.378906 -5.691406 4.359375 -5.203125 4.359375 -4.703125 C 4.367188 -4.203125 4.414062 -3.738281 4.5 -3.3125 C 4.582031 -2.894531 4.734375 -2.582031 4.953125 -2.375 C 5.054688 -2.269531 5.160156 -2.179688 5.265625 -2.109375 C 5.367188 -2.035156 5.410156 -1.929688 5.390625 -1.796875 C 5.359375 -1.566406 5.175781 -1.394531 4.84375 -1.28125 C 4.519531 -1.175781 4.148438 -1.101562 3.734375 -1.0625 C 3.316406 -1.019531 2.953125 -1 2.640625 -1 C 2.359375 -1 2.007812 -1.019531 1.59375 -1.0625 C 1.1875 -1.101562 0.828125 -1.175781 0.515625 -1.28125 C 0.203125 -1.394531 0.03125 -1.566406 0 -1.796875 C -0.0078125 -1.953125 0.0234375 -2.066406 0.109375 -2.140625 C 0.203125 -2.222656 0.300781 -2.316406 0.40625 -2.421875 C 0.53125 -2.523438 0.625 -2.722656 0.6875 -3.015625 C 0.757812 -3.316406 0.800781 -3.648438 0.8125 -4.015625 C 0.832031 -4.378906 0.816406 -4.71875 0.765625 -5.03125 C 0.710938 -5.351562 0.625 -5.59375 0.5 -5.75 C 0.394531 -5.90625 0.28125 -6.035156 0.15625 -6.140625 C 0.0390625 -6.253906 -0.0078125 -6.394531 0 -6.5625 C 0.03125 -6.789062 0.160156 -7 0.390625 -7.1875 C 0.628906 -7.382812 0.90625 -7.554688 1.21875 -7.703125 C 1.53125 -7.859375 1.816406 -8.003906 2.078125 -8.140625 C 2.273438 -8.234375 2.535156 -8.351562 2.859375 -8.5 C 3.191406 -8.65625 3.507812 -8.773438 3.8125 -8.859375 C 4.125 -8.941406 4.375 -8.941406 4.5625 -8.859375 C 4.75 -8.773438 4.796875 -8.550781 4.703125 -8.1875 Z M 4.703125 -8.1875 "/></g></g></g><g fill="#000000" fill-opacity="1"><g transform="translate(196.800502, 68.330242)"><g><path d="M 4.46875 -8.921875 C 5.382812 -8.921875 6.109375 -8.796875 6.640625 -8.546875 C 7.179688 -8.304688 7.585938 -7.976562 7.859375 -7.5625 C 8.128906 -7.15625 8.316406 -6.710938 8.421875 -6.234375 C 8.523438 -5.753906 8.597656 -5.269531 8.640625 -4.78125 C 8.691406 -4.300781 8.765625 -3.851562 8.859375 -3.4375 C 8.960938 -3.03125 9.144531 -2.707031 9.40625 -2.46875 C 9.519531 -2.34375 9.648438 -2.238281 9.796875 -2.15625 C 9.941406 -2.082031 10 -1.960938 9.96875 -1.796875 C 9.9375 -1.585938 9.753906 -1.398438 9.421875 -1.234375 C 9.085938 -1.078125 8.703125 -1 8.265625 -1 C 7.867188 -1 7.5 -1.070312 7.15625 -1.21875 C 6.820312 -1.375 6.519531 -1.523438 6.25 -1.671875 C 5.988281 -1.816406 5.742188 -1.890625 5.515625 -1.890625 C 5.304688 -1.890625 5.085938 -1.816406 4.859375 -1.671875 C 4.628906 -1.523438 4.347656 -1.375 4.015625 -1.21875 C 3.691406 -1.070312 3.28125 -1 2.78125 -1 C 2.144531 -1 1.59375 -1.125 1.125 -1.375 C 0.664062 -1.625 0.335938 -1.957031 0.140625 -2.375 C -0.046875 -2.800781 -0.046875 -3.265625 0.140625 -3.765625 C 0.304688 -4.222656 0.601562 -4.550781 1.03125 -4.75 C 1.46875 -4.945312 1.957031 -5.09375 2.5 -5.1875 C 3.050781 -5.289062 3.570312 -5.414062 4.0625 -5.5625 C 4.582031 -5.726562 4.914062 -5.976562 5.0625 -6.3125 C 5.21875 -6.65625 5.25 -6.992188 5.15625 -7.328125 C 5.0625 -7.660156 4.898438 -7.878906 4.671875 -7.984375 C 4.441406 -8.085938 4.273438 -8.046875 4.171875 -7.859375 C 4.078125 -7.679688 4.007812 -7.457031 3.96875 -7.1875 C 3.925781 -6.914062 3.863281 -6.6875 3.78125 -6.5 C 3.675781 -6.207031 3.46875 -6.003906 3.15625 -5.890625 C 2.84375 -5.773438 2.507812 -5.738281 2.15625 -5.78125 C 1.800781 -5.832031 1.492188 -5.945312 1.234375 -6.125 C 0.972656 -6.3125 0.832031 -6.554688 0.8125 -6.859375 C 0.800781 -7.171875 0.988281 -7.523438 1.375 -7.921875 C 1.65625 -8.203125 2.054688 -8.4375 2.578125 -8.625 C 3.097656 -8.820312 3.726562 -8.921875 4.46875 -8.921875 Z M 3.421875 -3.359375 C 3.460938 -3.035156 3.632812 -2.820312 3.9375 -2.71875 C 4.25 -2.613281 4.539062 -2.582031 4.8125 -2.625 C 4.9375 -2.65625 5.03125 -2.71875 5.09375 -2.8125 C 5.164062 -2.914062 5.207031 -3 5.21875 -3.0625 C 5.300781 -3.46875 5.335938 -3.828125 5.328125 -4.140625 C 5.316406 -4.460938 5.289062 -4.722656 5.25 -4.921875 C 5.226562 -5.035156 5.164062 -5.09375 5.0625 -5.09375 C 4.96875 -5.101562 4.847656 -5.03125 4.703125 -4.875 C 4.535156 -4.707031 4.34375 -4.554688 4.125 -4.421875 C 3.914062 -4.285156 3.738281 -4.132812 3.59375 -3.96875 C 3.445312 -3.800781 3.390625 -3.597656 3.421875 -3.359375 Z M 3.421875 -3.359375 "/></g></g></g></svg>